<svg xmlns="http://www.w3.org/2000/svg" width="48" height="48" viewBox="0 0 48 48" fill="#e4405f">
  <path id="instagram-icon" d="M24,4.326c6.408,0,7.168.024,9.7.14,6.5.3,9.542,3.382,9.838,9.838.116,2.53.138,3.29.138,9.7s-.024,7.168-.138,9.7c-.3,6.45-3.328,9.542-9.838,9.838-2.532.116-3.288.14-9.7.14s-7.168-.024-9.7-.14c-6.52-.3-9.542-3.4-9.838-9.84-.116-2.53-.14-3.288-.14-9.7s.026-7.166.14-9.7c.3-6.454,3.328-9.542,9.838-9.838,2.532-.114,3.29-.138,9.7-.138ZM24,0c-6.518,0-7.334.028-9.894.144C5.39.544.546,5.38.146,14.1.028,16.666,0,17.482,0,24s.028,7.336.144,9.9c.4,8.716,5.236,13.56,13.96,13.96,2.562.116,3.378.144,9.9.144s7.336-.028,9.9-.144c8.708-.4,13.564-5.236,13.958-13.96.118-2.56.146-3.378.146-9.9s-.028-7.334-.144-9.894C47.464,5.4,42.622.546,33.9.146,31.336.028,30.518,0,24,0Zm0,11.676A12.325,12.325,0,1,0,36.324,24,12.324,12.324,0,0,0,24,11.676ZM24,32a8,8,0,1,1,8-8A8,8,0,0,1,24,32ZM36.812,8.31a2.88,2.88,0,1,0,2.878,2.88A2.881,2.881,0,0,0,36.812,8.31Z"/>
</svg>
