<svg xmlns="http://www.w3.org/2000/svg" width="72" height="60" viewBox="0 0 72 60" fill="#0088cc">
  <path id="telegram-1" d="M55.152,62.337a3.567,3.567,0,0,0,3.321.435,3.481,3.481,0,0,0,2.172-2.52C63.251,48,69.575,16.989,71.948,5.844a2.343,2.343,0,0,0-.78-2.274,2.4,2.4,0,0,0-2.391-.42C56.2,7.806,17.46,22.341,1.627,28.2a2.467,2.467,0,0,0,.153,4.689c7.1,2.124,16.422,5.079,16.422,5.079s4.356,13.155,6.627,19.845a2.628,2.628,0,0,0,1.809,1.728,2.6,2.6,0,0,0,2.433-.621l9.288-8.769s10.716,7.857,16.794,12.186ZM22.122,36.306,27.159,52.92,28.278,42.4,58.832,14.841a.832.832,0,0,0,.1-1.131.853.853,0,0,0-1.128-.192L22.122,36.306Z" transform="translate(0 -3)" fill-rule="evenodd"/>
</svg>
