<svg id="undraw_Group_chat_unwm" xmlns="http://www.w3.org/2000/svg" xmlns:xlink="http://www.w3.org/1999/xlink" width="1203" height="774.711" viewBox="0 0 1203 774.711">
  <defs>
    <linearGradient id="linear-gradient" x1="0.5" y1="1" x2="0.5" gradientUnits="objectBoundingBox">
      <stop offset="0" stop-color="gray" stop-opacity="0.251"/>
      <stop offset="0.535" stop-color="gray" stop-opacity="0.122"/>
      <stop offset="1" stop-color="gray" stop-opacity="0.102"/>
    </linearGradient>
    <linearGradient id="linear-gradient-2" x1="0.5" y1="1" x2="0.5" y2="0" xlink:href="#linear-gradient"/>
    <linearGradient id="linear-gradient-3" x1="-4.618" y1="1" x2="-4.618" y2="0" xlink:href="#linear-gradient"/>
  </defs>
  <path id="Path_245" data-name="Path 245" d="M1231,523.971c0-71.093-31.615-133.884-79.91-171.64q1-10.775,1.01-21.855c0-115.429-83.323-209-186.107-209a169.66,169.66,0,0,0-90.338,26.248c-72.762-53-167.748-85.077-271.665-85.077-169.086,0-314.525,84.929-379.049,206.718-3.586-.231-7.2-.361-10.833-.361C111.323,269,28,362.575,28,478c0,42.438,11.274,81.912,30.625,114.878h0c0,103.853,88.532,188.043,197.741,188.043h791.912c85.747,0,155.259-66.1,155.259-147.645h0A227.408,227.408,0,0,0,1231,523.971Z" transform="translate(-28 -62.644)" fill="#6c63ff" opacity="0.1"/>
  <path id="Path_246" data-name="Path 246" d="M679.518,727.271s-12.29-8.11-24.473-2.341c0,0,3.753,7.228,19.17,6.539Z" transform="translate(5.046 -62.644)" fill="#6c63ff"/>
  <path id="Path_247" data-name="Path 247" d="M681.027,727.7s3.739,14.242-5.633,23.93c0,0-5.643-5.873-.044-20.255Z" transform="translate(5.519 -62.644)" fill="#6c63ff"/>
  <path id="Path_248" data-name="Path 248" d="M696.354,714.032s-.907-12.112-28.255-8.093c0,0-.129,7.814,9.474,11.517S691.565,718.037,696.354,714.032Z" transform="translate(5.848 -62.644)" fill="#6c63ff"/>
  <path id="Path_249" data-name="Path 249" d="M698.038,713.95s11.563,3.718,1.253,29.364c0,0-7.627-1.7-8.978-11.907S693.023,717.668,698.038,713.95Z" transform="translate(6.552 -62.644)" fill="#6c63ff"/>
  <path id="Path_250" data-name="Path 250" d="M713.52,696.77s1.564-19.93-26.381-17.884c0,0-1.985,18.038,21.449,22.676Z" transform="translate(6.796 -62.644)" fill="#6c63ff"/>
  <path id="Path_251" data-name="Path 251" d="M731.99,674.27s-3.832-22.583-31.768-15.852c0,0-.1,19.526,27.206,21.236Z" transform="translate(7.659 -62.644)" fill="#6c63ff"/>
  <path id="Path_252" data-name="Path 252" d="M745.484,651.01s-6.414-22.048-34.094-15.414c0,0,6.586,19.786,32.257,19.477Z" transform="translate(8.327 -62.644)" fill="#6c63ff"/>
  <path id="Path_253" data-name="Path 253" d="M758.306,628.3s-6.271-22.835-32.988-15.978c0,0,8.917,21.69,31.231,19.864Z" transform="translate(9.031 -62.644)" fill="#6c63ff"/>
  <path id="Path_254" data-name="Path 254" d="M766.573,606.717s-4.822-27.924-29.742-21.744c0,0,7.239,25.4,27.906,25.807Z" transform="translate(9.533 -62.644)" fill="#6c63ff"/>
  <path id="Path_255" data-name="Path 255" d="M774.318,580.645s-5.785-28.146-30.974-19.961c0,0,9.889,26.6,29.217,23.847Z" transform="translate(9.919 -62.644)" fill="#6c63ff"/>
  <path id="Path_256" data-name="Path 256" d="M779.116,556.379s-9.188-28.143-28.68-27.381c0,0,9.4,29.727,27.052,33.029Z" transform="translate(10.217 -62.644)" fill="#6c63ff"/>
  <path id="Path_257" data-name="Path 257" d="M782.163,532.7s-10-33.882-25.863-31.267c0,0,6.923,25.895,25.3,36.543Z" transform="translate(10.43 -62.644)" fill="#6c63ff"/>
  <path id="Path_258" data-name="Path 258" d="M783.894,504.422s-9.372-28.232-25.033-29.355c0,0,6.378,27.776,24.687,36.692Z" transform="translate(10.536 -62.644)" fill="#6c63ff"/>
  <path id="Path_259" data-name="Path 259" d="M785.79,478.093s-11.689-28.263-22.039-28.9c0,0,5.078,27.827,21.006,33.539Z" transform="translate(10.691 -62.644)" fill="#6c63ff"/>
  <path id="Path_260" data-name="Path 260" d="M787.088,453.574s-7.186-30.695-17.524-33.241c0,0,1.415,25.107,16.485,35.537Z" transform="translate(10.84 -62.644)" fill="#6c63ff"/>
  <path id="Path_261" data-name="Path 261" d="M790.974,421.489s-7.558-24.461-15.927-28.193c0,0,1.654,28.843,13.987,34.177Z" transform="translate(11.072 -62.644)" fill="#6c63ff"/>
  <path id="Path_262" data-name="Path 262" d="M794.208,400.412l1.525-43.139s-15.621,32.556-2.676,50.749Z" transform="translate(11.461 -62.644)" fill="#6c63ff"/>
  <path id="Path_263" data-name="Path 263" d="M806.292,357.542s11.264-31.5,13.972-33.256c0,0-22.1,20.435-19.94,46.728Z" transform="translate(12.536 -62.644)" fill="#6c63ff"/>
  <path id="Path_264" data-name="Path 264" d="M714.281,696.623s19.823-2.594,19.227,25.419c0,0-17.911,2.917-23.756-20.246Z" transform="translate(7.906 -62.644)" fill="#6c63ff"/>
  <path id="Path_265" data-name="Path 265" d="M732.926,673.516s22.906-.076,21.039,28.6c0,0-19.222,3.434-25.566-23.185Z" transform="translate(8.951 -62.644)" fill="#6c63ff"/>
  <path id="Path_266" data-name="Path 266" d="M745.709,652.867s20.79-9.749,34.094,15.414c0,0-19.2,8.125-35.931-11.351Z" transform="translate(10.117 -62.644)" fill="#6c63ff"/>
  <path id="Path_267" data-name="Path 267" d="M758.77,628.507s21.286-10.376,33.786,14.211c0,0-22.174,7.634-35.543-10.325Z" transform="translate(10.803 -62.644)" fill="#6c63ff"/>
  <path id="Path_268" data-name="Path 268" d="M766.3,607.321s20.491-19.573,36.843.222c0,0-20.932,16.106-37.784,4.137Z" transform="translate(11.327 -62.644)" fill="#6c63ff"/>
  <path id="Path_269" data-name="Path 269" d="M773.156,579.974s20.617-20.016,36.837.922c0,0-23.139,16.427-37.571,3.279Z" transform="translate(11.696 -62.644)" fill="#6c63ff"/>
  <path id="Path_270" data-name="Path 270" d="M777.013,555.579s15.881-24.984,34.576-19.412c0,0-16.476,26.468-34.4,25.287Z" transform="translate(11.833 -62.644)" fill="#6c63ff"/>
  <path id="Path_271" data-name="Path 271" d="M781.691,532.546s16.016-31.488,31.135-26.021c0,0-11.533,24.2-31.544,31.312Z" transform="translate(11.951 -62.644)" fill="#6c63ff"/>
  <path id="Path_272" data-name="Path 272" d="M782.794,502.816s16.452-24.783,31.86-21.757c0,0-13.444,25.129-33.451,28.927Z" transform="translate(12.015 -62.644)" fill="#6c63ff"/>
  <path id="Path_273" data-name="Path 273" d="M784.049,477.539s12.747-27.8,23.114-28.048c0,0-6.124,27.616-22.256,32.722Z" transform="translate(11.796 -62.644)" fill="#6c63ff"/>
  <path id="Path_274" data-name="Path 274" d="M786.579,452.97s14.169-28.161,24.816-28.217c0,0-7.251,24.079-24.344,30.693Z" transform="translate(11.99 -62.644)" fill="#6c63ff"/>
  <path id="Path_275" data-name="Path 275" d="M788.709,423.216s10.6-23.3,19.375-25.944c0,0-5.3,28.4-18.21,32.126Z" transform="translate(11.908 -62.644)" fill="#6c63ff"/>
  <path id="Path_276" data-name="Path 276" d="M795.47,399.6l23.688-36.085s-6.069,35.6-27.147,42.961Z" transform="translate(12.36 -62.644)" fill="#6c63ff"/>
  <path id="Path_277" data-name="Path 277" d="M811.73,360.445s27.532-19.007,28.528-22.076c0,0-14.045,26.619-40,31.316Z" transform="translate(13.271 -62.644)" fill="#6c63ff"/>
  <path id="Path_278" data-name="Path 278" d="M813.376,351.9s31.61-30.388,39.681-30.356c0,0-26.068,1.193-40.438,28.737Z" transform="translate(13.948 -62.644)" fill="#6c63ff"/>
  <path id="Path_279" data-name="Path 279" d="M789.015,427.727l1.154.148c5.939-46.5,14.6-73.974,24.385-77.373l-.382-1.1C803.8,353.005,795.1,380.089,789.015,427.727Z" transform="translate(12.144 -62.644)" fill="#444053"/>
  <path id="Path_280" data-name="Path 280" d="M780.282,538.9l1.739.147c.365-4.342.647-8.786.838-13.209,1.658-38.485,4.23-73.82,7.615-100.313l-1.008-1.246c-3.391,26.541-6.69,62.95-8.349,101.484C780.926,530.161,780.646,534.581,780.282,538.9Z" transform="translate(11.146 -62.644)" fill="#444053"/>
  <path id="Path_281" data-name="Path 281" d="M647.057,749.4c.306-.134,30.934-13.81,62.724-46.436a252.324,252.324,0,0,0,45.851-64.956c14.7-29.925,23.654-66.709,26.661-102.438l-1.813.852c-6.748,80.194-43.26,135.023-72.293,164.843-31.48,32.335-61.764,45.871-62.066,46Z" transform="translate(8.186 -62.644)" fill="#444053"/>
  <path id="Path_282" data-name="Path 282" d="M657.676,364.765V742.547c0,11.236-10.837,20.371-24.217,20.371H120.892c-13.381,0-24.217-9.135-24.217-20.371V364.765c0-11.256,10.836-22.727,24.217-22.727H633.458C646.839,342.038,657.676,353.509,657.676,364.765Z" transform="translate(-28 -62.644)" fill="#fff"/>
  <path id="Path_283" data-name="Path 283" d="M657.676,366.255v59.389h-561V366.255a24.21,24.21,0,0,1,24.217-24.217H633.458a24.21,24.21,0,0,1,24.217,24.217Z" transform="translate(-28 -62.644)" fill="#6c63ff" opacity="0.2"/>
  <circle id="Ellipse_379" data-name="Ellipse 379" cx="16.194" cy="16.194" r="16.194" transform="translate(83.247 305.003)" fill="#fff"/>
  <circle id="Ellipse_380" data-name="Ellipse 380" cx="16.194" cy="16.194" r="16.194" transform="translate(130.362 305.003)" fill="#fff"/>
  <circle id="Ellipse_381" data-name="Ellipse 381" cx="16.194" cy="16.194" r="16.194" transform="translate(177.477 305.003)" fill="#fff"/>
  <path id="Path_284" data-name="Path 284" d="M232.783,762.227s-15.658,3.789-21.857,10.872a21.079,21.079,0,0,1-8.335,5.3V767.683c3.58-6.015,7.193-12.7,7.193-12.7.163-.329,1.468-4.942,1.468-4.942,2.936-2.306-.163-10.378-.163-10.378s1.794-5.107.816-6.095-.163-3.624.652-4.777a5.967,5.967,0,0,0,.652-3.624c0-.988-1.3-2.471-3.425-3.295s.163-2.141,1.468-2.471,1.631-3.459.163-5.107.163-2.636.979-4.448-2.61-1.483-2.61-1.483V691.726h0s-.979-5.436-1.957-14.994-4.732-10.541-4.732-10.541a42.7,42.7,0,0,1-5.872-2.308,40.184,40.184,0,0,0-6.2-2.3,31.776,31.776,0,0,1-7.991-1.107,24.505,24.505,0,0,0-5.456-1.181c-.2-.094-.391-.193-.587-.292a21.354,21.354,0,0,1-9.9-10.487c-.1-.226-.193-.45-.284-.672a23.284,23.284,0,0,0,2.608-3.459l.017-.028c0,.168.007.336.007.5,0,.071,0,.141,0,.212,0,.406-.006.812-.017,1.217l0,0v.036c2.6-4.6,10.149-5.646,10.868-10.892a5.5,5.5,0,0,0,.047-.719v-.033c0-.177-.008-.354-.021-.53-.1-1.465-.6-2.923-.7-4.4a8.579,8.579,0,0,1,.021-1.271l0,.024c.337-4.076,3.41-7.618,4.818-11.577a14.181,14.181,0,0,0,.734-3.294l0-.03q.052-.51.069-1.022c0-.085,0-.169,0-.254q.006-.356,0-.711a15.413,15.413,0,0,0-5.091-11.131c-2.6-2.26-6.037-3.68-7.837-6.63-.84-1.376-1.253-2.993-2.168-4.32-1.724-2.5-4.895-3.516-7.888-3.878s-6.081-.24-8.948-1.182c-2.032-.667-3.876-1.847-5.929-2.442a11.348,11.348,0,0,0-12.188,4.395c-1.082,1.579-1.791,3.47-3.249,4.7-2.989,2.525-8.06,1.429-10.679,4.344-1.438,1.6-1.6,3.78-1.429,6.011l.006.078q.021.259.048.519c.008.081.016.161.025.241s.019.172.03.258c.092.8.208,1.594.308,2.361.015.117.027.234.041.351.028.238.056.476.08.714.017.174.032.348.046.523q.027.324.047.648c.011.169.022.339.031.508a35.158,35.158,0,0,1-3.741,17.569c-2.467,4.845-6.138,9.3-6.777,14.715a15.6,15.6,0,0,0-.07,2.669c.005.1.008.209.015.314.011.16.029.32.044.48.017.184.034.367.056.551.013.1.029.209.044.314.033.244.069.487.11.73.009.052.019.1.028.156.648,3.687,2.115,7.326,2.9,11.025a30.547,30.547,0,0,1,.583,4.166v.029q.046.667.064,1.336c.015.6.007,1.207-.013,1.81a28.4,28.4,0,0,1-3.8,1.167c-2.285.331-8.974,6.261-8.485,7.744.484,1.463-2.995,11.875-3.093,12.182l0,0h0l-5.5,37.887s-2.906,2.8-2,4.612-.176,4.942-.176,4.942-4.909,2.141-3.82,3.459.592,3.789-.158,5.436-1.974,4.612,0,5.107.339,6.919.339,6.919,6.884-.79,6.379,3.295c-.162,1.3,4.815,4.881,6.893,6.313v19.68a60.235,60.235,0,0,1-8.155-2.766c-4.241-1.977-28.055-5.766-33.274,5.6s7.177,26.521,10.276,28.168c0,0,2.936,2.306,3.588,3.459s4.4,1.483,4.4,1.483,3.915,1.812,4.893,2.8c.722.729,6.683,2.623,13.754,4.1h0s-5.709,13.144,3.6,12.059,13.85-5.667,20.417-5.667c2.624,0,7.5-.366,12.4-.805a32.711,32.711,0,0,1,3.647.86,46.653,46.653,0,0,0,8.482,1.812s7.34,3.953,11.254,2.965a2.569,2.569,0,0,0,.889-.476c.029-.007.06-.011.089-.019a5.23,5.23,0,0,0,2.358-2.021c4.9.5,10.477,1.214,12.577,2.024,4.06,1.568,33.074-.6,33.074-.6s18.746.369,24.119,1.993,3.463-16.584-6.448-18.634a40.413,40.413,0,0,0-8.063-.713,17.691,17.691,0,0,0,1.873-2.277c3.571-.325,5.917-.525,5.917-.525s9.46-4.612,14.843-7.413A33.852,33.852,0,0,0,246,800.444s4.73-2.965,6.687-4.118,2.936-4.942,2.936-4.942C270.461,757.779,232.783,762.227,232.783,762.227Zm-42.476-42.154c0-.555,0-1.11.006-1.661.521.377.445.965-.006,1.661Zm.155,11.65c.395.52.779.994,1.054,1.347,1.054,1.352-.854,2.009-.716,4.277.031.509.075,1.213.123,2h0c-.2-3.247-.365-5.941-.461-7.622Z" transform="translate(-28 -62.644)" fill="url(#linear-gradient)"/>
  <path id="Path_285" data-name="Path 285" d="M105.559,783.71s-9.134-2.12-13.375-4.078-28.055-5.709-33.274,5.546,7.177,26.26,10.276,27.891,33.274-20.715,33.274-20.715l23.814,10.031,4.567-15.577Z" transform="translate(-28 -62.644)" fill="#65617d"/>
  <rect id="Rectangle_187" data-name="Rectangle 187" width="103.616" height="36.047" rx="16.588" transform="translate(87.63 724.164)" fill="#65617d"/>
  <path id="Path_286" data-name="Path 286" d="M219.245,804.83a18.026,18.026,0,0,1-18.022,18.027h-67.57a18.024,18.024,0,1,1,0-36.049h67.571a18.023,18.023,0,0,1,18.022,18.02Z" transform="translate(-28 -62.644)" opacity="0.1"/>
  <path id="Path_287" data-name="Path 287" d="M162.83,805.885s-10.388,2.668-18.865,2.549-48.14,16.358-48.14,16.358-5.709,13.015,3.6,11.94,13.85-5.612,20.417-5.612,27.223-2.269,27.223-2.269l19.879-14.686Z" transform="translate(-28 -62.644)" fill="#fbbebe"/>
  <path id="Path_288" data-name="Path 288" d="M169.334,683.072,150.7,686.747l-1.209.24s-14.734-3.915-15.223-4.242-13.863-18.35-13.863-18.35,6.762.073,12.077-2.99c.191-.108.377-.225.563-.343a11.757,11.757,0,0,0,5.04-6.156c.093-.269.176-.548.254-.837a16.537,16.537,0,0,0-.157-8.025c-1.8-7.6,2.373-9.7,7.937-9.517,8.035.264,18.976,5.28,18.976,5.28a22.277,22.277,0,0,0,1.718,7.438c.088.22.186.44.284.665a21.226,21.226,0,0,0,9.9,10.383c.2.1.387.2.587.289.592.284,1.218.553,1.869.8C193.639,666.763,169.334,683.072,169.334,683.072Z" transform="translate(-28 -62.644)" fill="#fbbebe"/>
  <path id="Path_289" data-name="Path 289" d="M167.093,649.91a23.493,23.493,0,0,1-29.012,5,15.79,15.79,0,0,0,.1-8.862c-4.4-18.594,26.913-4.238,26.913-4.238a22.567,22.567,0,0,0,2,8.1Z" transform="translate(-28 -62.644)" opacity="0.1"/>
  <path id="Path_290" data-name="Path 290" d="M172.975,633.391a23.363,23.363,0,0,1-3.557,12.429,23.088,23.088,0,0,1-2.608,3.425,23.376,23.376,0,0,1-15.9,7.589c-.47.029-.944.044-1.419.044a23.488,23.488,0,1,1,23.488-23.488Z" transform="translate(-28 -62.644)" fill="#fbbebe"/>
  <path id="Path_291" data-name="Path 291" d="M169.334,683.072,150.7,686.747l-1.209.24s-14.734-3.915-15.223-4.242-13.863-18.35-13.863-18.35,6.762.073,12.077-2.99c.191-.108.377-.225.563-.343a21.871,21.871,0,0,0,15.9,6.953,22.624,22.624,0,0,0,3.318-.264c2.623-.4,5.265-.661,7.9-.935,5.05-.528,12.776-2.06,16.833-6.523.2.1.387.2.587.289.592.284,1.218.553,1.869.8C193.639,666.763,169.334,683.072,169.334,683.072Z" transform="translate(-28 -62.644)" opacity="0.1"/>
  <path id="Path_292" data-name="Path 292" d="M190.375,730.7c.161,3.592,2.774,44.039,2.774,44.039H111.756l.553-25.464.445-20.371.147-6.684.651-23.16-2.354-2.075-12.815-11.3,0,0c.1-.3,3.577-10.613,3.093-12.062-.489-1.468,6.2-7.34,8.485-7.668a28.809,28.809,0,0,0,3.827-1.165c3.846-1.35,8.979-3.337,9.547-3.029.8.431,8.8-.313,9.141-.347h.01a21.824,21.824,0,0,0,16.451,7.589,22.624,22.624,0,0,0,3.318-.264c2.623-.4,5.265-.661,7.9-.935,5.3-.553,13.554-2.217,17.42-7.213a24.729,24.729,0,0,1,5.456,1.169,32.081,32.081,0,0,0,7.991,1.1,40.448,40.448,0,0,1,6.2,2.28,42.95,42.95,0,0,0,5.872,2.285s3.753.979,4.732,10.437,1.957,14.846,1.957,14.846l-19.412,16.8S190.214,727.111,190.375,730.7Z" transform="translate(-28 -62.644)" fill="#6c63ff"/>
  <path id="Path_293" data-name="Path 293" d="M70.382,696.273l2.852,4.567,10.686,3.766,7.34-13.39-6.767-4.567-10.849-4.24L67.446,686Z" fill="#fbbebe"/>
  <path id="Path_294" data-name="Path 294" d="M189.56,781.426s15.169-1.142,21.367-8.155,21.857-10.765,21.857-10.765,37.678-4.4,22.835,28.87c0,0-.979,3.751-2.936,4.893S246,800.347,246,800.347L188.1,795.291Z" transform="translate(-28 -62.644)" fill="#65617d"/>
  <path id="Path_295" data-name="Path 295" d="M219.245,804.83a17.967,17.967,0,0,1-3,9.963c-9.738.866-31.307,2.892-35.819,4.149-5.544,1.536-16.764-1.14-17.992-1.443-.073-.015-.113-.024-.113-.024s-2.163-6.562-3.2-10.76c-.465-1.908-.7-3.327-.4-3.43.979-.328,9.953-2.774,9.786-1.39s26.913-10.52,26.913-10.52l.832,10.441C199.022,804.981,219.245,800.3,219.245,804.83Z" transform="translate(-28 -62.644)" opacity="0.1"/>
  <path id="Path_296" data-name="Path 296" d="M247.137,796.106,246,800.347a33.78,33.78,0,0,1-9.134,7.177c-5.383,2.773-14.843,7.34-14.843,7.34S187.276,817.8,181.4,819.43s-18.1-1.468-18.1-1.468-4.567-13.864-3.588-14.19,9.95-2.773,9.786-1.386,26.913-10.52,26.913-10.52Z" transform="translate(-28 -62.644)" fill="#65617d"/>
  <path id="Path_297" data-name="Path 297" d="M150.412,832.672s17.074,1.194,21.134,2.746,33.074-.6,33.074-.6,18.746.365,24.119,1.973,3.463-16.421-6.448-18.451-23.88.955-23.88.955-15.761-2.03-17.671-2.269-14.5.116-14.5.116Z" transform="translate(-28 -62.644)" fill="#fbbebe"/>
  <path id="Path_298" data-name="Path 298" d="M83.31,787.658s22.567,2.03,28.775,5.731Z" transform="translate(-28 -62.644)" opacity="0.1"/>
  <path id="Path_299" data-name="Path 299" d="M224.082,772.853s-17.671,4.3-24.6,10.627Z" transform="translate(-28 -62.644)" opacity="0.1"/>
  <path id="Path_300" data-name="Path 300" d="M84.623,782.524c.358.119,10.388,1.433,10.149,2.388S84.623,782.524,84.623,782.524Z" transform="translate(-28 -62.644)" opacity="0.1"/>
  <path id="Path_301" data-name="Path 301" d="M68.86,807.687l1.3,4.893a21.137,21.137,0,0,1,3.588,3.425c.652,1.142,4.4,1.468,4.4,1.468s3.915,1.794,4.893,2.773,11.581,4.078,21.53,5.383,28.381,3.751,32.3,5.056a47.067,47.067,0,0,0,8.482,1.794s7.34,3.915,11.254,2.936,10.6-18.757,10.6-18.757-25.771-6.035-26.587-7.992-25.608-11.086-25.608-11.086l-14.68.347Z" transform="translate(-28 -62.644)" opacity="0.1"/>
  <path id="Path_302" data-name="Path 302" d="M67.881,808.176l1.3,4.893a21.131,21.131,0,0,1,3.588,3.425c.652,1.142,4.4,1.468,4.4,1.468s3.915,1.794,4.893,2.773,11.581,4.078,21.53,5.383,28.381,3.751,32.3,5.056a47.051,47.051,0,0,0,8.482,1.794s7.34,3.915,11.254,2.936,10.6-18.757,10.6-18.757-25.771-6.035-26.587-7.992-37.189-16.8-37.189-16.8l-11.418-2.61Z" transform="translate(-28 -62.644)" fill="#65617d"/>
  <path id="Path_303" data-name="Path 303" d="M101.234,684.05l-2.851,1.631L92.88,723.2s-2.906,2.773-2,4.567-.176,4.893-.176,4.893-4.909,2.12-3.82,3.425.592,3.751-.158,5.383-1.974,4.567,0,5.056.339,6.851.339,6.851,6.884-.782,6.379,3.262c-.2,1.631,7.787,6.851,7.787,6.851s-9.08-16.474,11.26-14.19l1.749-9.288s1.749-5.229,0-6.86.393-9.379.393-9.379l.384-33.682Z" transform="translate(-28 -62.644)" fill="#6c63ff"/>
  <path id="Path_304" data-name="Path 304" d="M96.8,732.5c.358.6,11.343,1.815,12.059,3.773S96.8,732.5,96.8,732.5Z" transform="translate(-28 -62.644)" opacity="0.1"/>
  <path id="Path_305" data-name="Path 305" d="M93.339,741.809s1.489-4.657,5.043-3.821S93.339,741.809,93.339,741.809Z" transform="translate(-28 -62.644)" opacity="0.1"/>
  <path id="Path_306" data-name="Path 306" d="M91.429,748.614s2.627-6.209,6.209-5.731S91.429,748.614,91.429,748.614Z" transform="translate(-28 -62.644)" opacity="0.1"/>
  <path id="Path_307" data-name="Path 307" d="M210.927,748.478l-1.142,6.851s-11.744,21.53-13.864,21.857-13.7-14.354-13.7-14.354l-3.1-14.354,12.2-2.312,5.415-5.354S210.438,742.117,210.927,748.478Z" transform="translate(-28 -62.644)" fill="#fbbebe"/>
  <path id="Path_308" data-name="Path 308" d="M205.381,689.6l4.4,3.1v16.474s3.425-.326,2.61,1.468-2.447,2.773-.979,4.4,1.142,4.73-.163,5.056-3.588,1.631-1.468,2.447,3.425,2.284,3.425,3.262a5.858,5.858,0,0,1-.652,3.588c-.816,1.142-1.631,3.751-.652,4.73s-.816,6.035-.816,6.035,3.1,7.992.163,10.276c0,0-1.3,4.567-1.468,4.893,0,0,2.055-15.879-18.464-9.163,0,0-.382-6.051-.52-8.3s1.77-2.9.716-4.235-3.693-4.4-2.447-5.219.816-2.284.326-3.425-2.217-1.142-.654-2.528,2.486-2.688,1.57-3.342-2.51-2.779-1.242-3.753,1.3-15.169,1.3-15.169S195.595,679.32,205.381,689.6Z" transform="translate(-28 -62.644)" fill="#6c63ff"/>
  <path id="Path_309" data-name="Path 309" d="M203.306,717.661s6.271-1.7,6.479,0S203.306,717.661,203.306,717.661Z" transform="translate(-28 -62.644)" opacity="0.1"/>
  <path id="Path_310" data-name="Path 310" d="M196.262,722.346s8.6-2.149,9.671-.478S196.262,722.346,196.262,722.346Z" transform="translate(-28 -62.644)" opacity="0.1"/>
  <path id="Path_311" data-name="Path 311" d="M194.351,726.884s12.9-1.791,13.731.836S194.351,726.884,194.351,726.884Z" transform="translate(-28 -62.644)" opacity="0.1"/>
  <path id="Path_312" data-name="Path 312" d="M196.262,732.5c.478.119,12.418.955,12.656,3.224S196.262,732.5,196.262,732.5Z" transform="translate(-28 -62.644)" opacity="0.1"/>
  <rect id="Rectangle_188" data-name="Rectangle 188" width="102.252" height="58.079" rx="10.467" transform="translate(72.34 677.204)" fill="#3f3d56"/>
  <circle id="Ellipse_382" data-name="Ellipse 382" cx="3.772" cy="3.772" r="3.772" transform="translate(119.694 702.471)" fill="#e7effd"/>
  <path id="Path_313" data-name="Path 313" d="M117.466,704.252s9.8,7.491,17.378,1.782C134.844,706.034,122.033,707.2,117.466,704.252Z" transform="translate(-28 -62.644)" opacity="0.1"/>
  <path id="Path_314" data-name="Path 314" d="M167.093,706.265s9.8,7.491,17.378,1.782C184.471,708.048,171.66,709.213,167.093,706.265Z" transform="translate(-28 -62.644)" opacity="0.1"/>
  <path id="Path_315" data-name="Path 315" d="M172.975,633.391a23.363,23.363,0,0,1-3.557,12.429c-.2-6.542-1.737-13.085-5.295-18.545-3.259-5.006-13.163-13.779-19.974-11.338a4.835,4.835,0,0,0-2.975,3.2c-.675,2.564,1.3,3.631,2.569,5.671a17.366,17.366,0,0,1,2.373,11.719,16.5,16.5,0,0,1-.343,1.625c-1.072,4.022-3.528,8.627-.993,11.93,1.766,2.3,5.564,3.093,6.077,5.945a3.478,3.478,0,0,1,.049.807c-.117,1.918-1.757,3.611-2.471,5.5-.842,2.222-.367,4.428.5,6.66,1.135,2.911,2.941,5.857,3.376,8.93.431,3.029-.5,5.926-1.62,8.823a39.537,39.537,0,0,0-2.691,8.3c-.788,5.422,1.2,11.69-2.212,15.976a2.384,2.384,0,0,1-1.492,1.008c-2.187.23-1.815-3.7-3.572-5.021.186,2.285.362,4.663-.465,6.8s-2.985,3.949-5.25,3.592q-.389-2.562-.778-5.128a14.789,14.789,0,0,1-5.432,3.4,39.589,39.589,0,0,1,5.666-15.35c-5.745,2.765-9.092,8.754-12.081,14.381-1.864,3.518-3.792,7.364-3.141,11.294.264,1.6.954,3.122,1.106,4.737s-.436,3.494-1.938,4.11a3.5,3.5,0,0,1-3.782-1.174c-.054-.064-.108-.127-.161-.2a3.827,3.827,0,0,1-.259-.367,5.7,5.7,0,0,1-.435-.773,14.993,14.993,0,0,1-.92-3l-.1-.44c-1.517-6.669-2.887-13.544-1.776-20.287.411-2.486,1.16-4.947,1.072-7.467a13.81,13.81,0,0,0-.851-4.164c-1.331-3.729-3.895-7.159-5.358-10.917a.6.6,0,0,1-.034-.083c-.768-1.992-1.145-4.477.274-6.073a12.362,12.362,0,0,1,2.726-1.845c2.838-1.85,4.11-5.358,4.629-8.705a29.336,29.336,0,0,0,.357-4.58c3.846-1.351,8.979-3.337,9.547-3.029.8.431,8.8-.313,9.141-.347a11.96,11.96,0,0,0,5.6-6.5c.093-.269.176-.548.254-.837a23.49,23.49,0,1,1,34.639-20.679Z" transform="translate(-28 -62.644)" opacity="0.1"/>
  <path id="Path_316" data-name="Path 316" d="M145.773,637.172c-1.073,4.024-3.527,8.628-.991,11.931,1.767,2.3,5.563,3.091,6.074,5.948.4,2.26-1.608,4.159-2.42,6.307-1.937,5.124,3.111,10.163,3.879,15.587.832,5.884-3.455,11.248-4.309,17.129-.788,5.421,1.2,11.688-2.213,15.973a2.369,2.369,0,0,1-1.492,1.01c-2.187.232-1.816-3.7-3.574-5.018.189,2.285.366,4.663-.464,6.8s-2.984,3.948-5.249,3.591l-.778-5.13a14.845,14.845,0,0,1-5.432,3.4,39.612,39.612,0,0,1,5.667-15.35c-5.742,2.766-9.09,8.752-12.079,14.381-1.867,3.517-3.793,7.363-3.142,11.291.265,1.6.954,3.122,1.106,4.738s-.436,3.493-1.939,4.109a3.559,3.559,0,0,1-3.943-1.367,10.314,10.314,0,0,1-1.614-4.142c-1.558-6.808-3.017-13.838-1.878-20.728.411-2.486,1.159-4.948,1.069-7.466-.2-5.507-4.261-10.022-6.245-15.163-.769-1.992-1.143-4.477.274-6.074a12.453,12.453,0,0,1,2.729-1.844c2.837-1.85,4.11-5.357,4.63-8.7a30.164,30.164,0,0,0-.307-10.9c-1.146-5.365-3.772-10.6-3.122-16.048.639-5.357,4.309-9.772,6.777-14.57a34.49,34.49,0,0,0,3.5-20.146c-.425-3.217-1.167-6.941,1.014-9.344,2.619-2.885,7.69-1.8,10.679-4.3,1.458-1.22,2.167-3.092,3.249-4.656a11.407,11.407,0,0,1,12.188-4.352c2.054.589,3.9,1.757,5.929,2.418,2.867.933,5.954.813,8.948,1.171s6.165,1.366,7.888,3.839c.915,1.313,1.328,2.915,2.168,4.277,1.8,2.921,5.237,4.327,7.837,6.565a15.213,15.213,0,0,1,4.282,16.25c-1.553,4.324-5.145,8.145-4.839,12.729.126,1.883.926,3.73.668,5.6-.719,5.195-8.264,6.234-10.868,10.785.207-7.463-1.225-15.154-5.3-21.411-3.26-5.007-13.165-13.78-19.974-11.339a4.837,4.837,0,0,0-2.976,3.2c-.674,2.564,1.3,3.63,2.568,5.673a17.246,17.246,0,0,1,2.031,13.342Z" transform="translate(-28 -62.644)" fill="#3f3d56"/>
  <g id="Group_31" data-name="Group 31" transform="translate(77.139 538.706)" opacity="0.2">
    <path id="Path_317" data-name="Path 317" d="M113.781,663.036a30.145,30.145,0,0,0-.65-6.984c-.974-4.561-3.011-9.029-3.2-13.613-.261,5.1,2.125,10.034,3.2,15.081a30.1,30.1,0,0,1,.65,5.516Z" transform="translate(-105.139 -601.351)"/>
    <path id="Path_318" data-name="Path 318" d="M133.22,700.067c.4-.729.809-1.449,1.252-2.151-5.742,2.766-9.09,8.752-12.079,14.382-1.729,3.256-3.5,6.8-3.241,10.421.218-3.111,1.747-6.138,3.241-8.953C125.156,708.56,128.232,703.054,133.22,700.067Z" transform="translate(-105.139 -601.351)"/>
    <path id="Path_319" data-name="Path 319" d="M120.327,729.575a3.46,3.46,0,0,1-1.909,2.862,3.559,3.559,0,0,1-3.943-1.367,10.313,10.313,0,0,1-1.614-4.142,73.765,73.765,0,0,1-2.271-14.81c-.109,5.446,1.047,10.93,2.271,16.278a10.313,10.313,0,0,0,1.614,4.142,3.559,3.559,0,0,0,3.943,1.367c1.5-.616,2.091-2.492,1.939-4.109C120.349,729.721,120.336,729.648,120.327,729.575Z" transform="translate(-105.139 -601.351)"/>
    <path id="Path_320" data-name="Path 320" d="M146.3,632.268a16.319,16.319,0,0,1-.529,3.468c-.8,2.983-2.348,6.284-2.066,9.138.217-2.483,1.4-5.187,2.066-7.67a16.538,16.538,0,0,0,.529-4.936Z" transform="translate(-105.139 -601.351)"/>
    <path id="Path_321" data-name="Path 321" d="M120.561,610.493a33.866,33.866,0,0,0-.281-5.205c-.168-1.271-.383-2.621-.45-3.937a29.446,29.446,0,0,0,.45,5.405A33.7,33.7,0,0,1,120.561,610.493Z" transform="translate(-105.139 -601.351)"/>
    <path id="Path_322" data-name="Path 322" d="M150.857,655.082c-.007-.04-.021-.076-.03-.115-.347,1.7-1.745,3.248-2.39,4.954a7,7,0,0,0-.4,3.192,6.727,6.727,0,0,1,.4-1.724C149.249,659.241,151.261,657.342,150.857,655.082Z" transform="translate(-105.139 -601.351)"/>
    <path id="Path_323" data-name="Path 323" d="M112.05,698.732c-.2-5.507-4.261-10.022-6.245-15.163a10.183,10.183,0,0,1-.638-2.508,8.453,8.453,0,0,0,.638,3.976c1.951,5.056,5.9,9.507,6.223,14.891C112.052,699.531,112.064,699.132,112.05,698.732Z" transform="translate(-105.139 -601.351)"/>
    <path id="Path_324" data-name="Path 324" d="M164.126,624.859c-3.26-5.007-13.165-13.78-19.974-11.339a4.837,4.837,0,0,0-2.976,3.2,3.467,3.467,0,0,0-.051,1.715c.017-.082.029-.162.051-.247a4.837,4.837,0,0,1,2.976-3.2c6.809-2.442,16.713,6.331,19.974,11.339,3.69,5.667,5.207,12.509,5.308,19.294C169.541,638.363,168.082,630.935,164.126,624.859Z" transform="translate(-105.139 -601.351)"/>
    <path id="Path_325" data-name="Path 325" d="M180.292,635.485c-.717,5.183-8.23,6.23-10.85,10.756q0,.75-.018,1.5c2.6-4.552,10.149-5.591,10.868-10.785a6.377,6.377,0,0,0,.005-1.538C180.294,635.438,180.3,635.461,180.292,635.485Z" transform="translate(-105.139 -601.351)"/>
    <path id="Path_326" data-name="Path 326" d="M184.464,617.157c-1.553,4.324-5.145,8.145-4.839,12.729,0,.067.015.134.022.2.337-4.036,3.41-7.544,4.818-11.463a14.384,14.384,0,0,0,.8-5.587,14.129,14.129,0,0,1-.8,4.119Z" transform="translate(-105.139 -601.351)"/>
    <path id="Path_327" data-name="Path 327" d="M145.793,708.61a2.369,2.369,0,0,1-1.492,1.01c-2.187.232-1.816-3.7-3.574-5.018.043.52.084,1.045.114,1.571,1.622,1.406,1.324,5.141,3.46,4.915a2.369,2.369,0,0,0,1.492-1.01c1.946-2.445,2.136-5.534,2.085-8.744C147.829,704.009,147.441,706.541,145.793,708.61Z" transform="translate(-105.139 -601.351)"/>
    <path id="Path_328" data-name="Path 328" d="M140.264,711.4c-.829,2.138-2.984,3.948-5.249,3.591l-.778-5.13a14.844,14.844,0,0,1-5.16,3.3c-.1.523-.2,1.046-.272,1.573a14.845,14.845,0,0,0,5.432-3.4l.778,5.13c2.265.358,4.42-1.453,5.249-3.591a11.567,11.567,0,0,0,.6-4.642A9.872,9.872,0,0,1,140.264,711.4Z" transform="translate(-105.139 -601.351)"/>
    <path id="Path_329" data-name="Path 329" d="M148.006,692.637a26.269,26.269,0,0,0-.2,4.157,21.468,21.468,0,0,1,.2-2.689c.815-5.606,4.744-10.741,4.39-16.306C152.08,682.808,148.749,687.528,148.006,692.637Z" transform="translate(-105.139 -601.351)"/>
  </g>
  <path id="Path_330" data-name="Path 330" d="M767,268.486V366.67c0,5.182-5,9.4-11.169,9.4H519.421c-6.171,0-11.169-4.213-11.169-9.4V268.486c0-5.191,5-10.482,11.169-10.482H755.826C762,258,767,263.295,767,268.486Z" transform="translate(4.008 -62.644)" fill="#fff"/>
  <path id="Path_331" data-name="Path 331" d="M767,269.173v27.391H508.251V269.173A11.166,11.166,0,0,1,519.421,258H755.826A11.166,11.166,0,0,1,767,269.173Z" transform="translate(4.008 -62.644)" fill="#6c63ff" opacity="0.2"/>
  <circle id="Ellipse_383" data-name="Ellipse 383" cx="7.469" cy="7.469" r="7.469" transform="translate(512.419 207.171)" fill="#fff"/>
  <circle id="Ellipse_384" data-name="Ellipse 384" cx="7.469" cy="7.469" r="7.469" transform="translate(535.285 207.171)" fill="#fff"/>
  <circle id="Ellipse_385" data-name="Ellipse 385" cx="7.469" cy="7.469" r="7.469" transform="translate(558.151 207.171)" fill="#fff"/>
  <circle id="Ellipse_386" data-name="Ellipse 386" cx="29.199" cy="29.199" r="29.199" transform="translate(694.643 243.839)" fill="#6c63ff"/>
  <rect id="Rectangle_189" data-name="Rectangle 189" width="123.139" height="4.346" transform="translate(654.79 257.737) rotate(180)" fill="#6c63ff"/>
  <rect id="Rectangle_190" data-name="Rectangle 190" width="123.139" height="4.346" transform="translate(654.79 268.331) rotate(180)" fill="#6c63ff" opacity="0.2"/>
  <rect id="Rectangle_191" data-name="Rectangle 191" width="123.139" height="4.346" transform="translate(654.79 278.924) rotate(180)" fill="#6c63ff" opacity="0.2"/>
  <rect id="Rectangle_192" data-name="Rectangle 192" width="123.139" height="4.346" transform="translate(654.79 289.518) rotate(180)" fill="#6c63ff" opacity="0.2"/>
  <path id="Path_332" data-name="Path 332" d="M672.568,514.292s-8.676-1.992-14.354,3.852c0,0,3.655,3.3,12.24-.353Z" transform="translate(4.915 -62.644)" fill="#6c63ff"/>
  <path id="Path_333" data-name="Path 333" d="M673.514,514.218s5.131,7.275,1.873,14.744c0,0-4.438-2.132-4.311-11.461Z" transform="translate(5.323 -62.644)" fill="#6c63ff"/>
  <path id="Path_334" data-name="Path 334" d="M679.3,503.232s-3.076-6.667-17.713,1.395c0,0,1.58,4.452,7.8,4.518S677.436,506.513,679.3,503.232Z" transform="translate(5.19 -62.644)" fill="#6c63ff"/>
  <path id="Path_335" data-name="Path 335" d="M680.237,502.83s7.335-.341,6.922,16.364c0,0-4.68.648-7.6-4.843S678.184,506,680.237,502.83Z" transform="translate(5.792 -62.644)" fill="#6c63ff"/>
  <path id="Path_336" data-name="Path 336" d="M685.37,489.824s-3.331-11.618-18.724-4.546c0,0,2.692,10.635,16.945,8.3Z" transform="translate(5.485 -62.644)" fill="#6c63ff"/>
  <path id="Path_337" data-name="Path 337" d="M691.069,473.175s-6.948-11.978-21.345-2.256c0,0,4.072,11.08,19.9,6.27Z" transform="translate(5.725 -62.644)" fill="#6c63ff"/>
  <path id="Path_338" data-name="Path 338" d="M693.79,457.147s-8.3-11.129-22.569-1.516c0,0,7.916,9.811,22.388,4.205Z" transform="translate(5.841 -62.644)" fill="#6c63ff"/>
  <path id="Path_339" data-name="Path 339" d="M696.246,441.572s-8.383-11.6-22.062-2.069c0,0,9.639,10.4,21.889,4.641Z" transform="translate(5.981 -62.644)" fill="#6c63ff"/>
  <path id="Path_340" data-name="Path 340" d="M696.361,427.6s-8.639-14.793-21.444-6.021c0,0,9.474,12.853,21.264,8.711Z" transform="translate(6.001 -62.644)" fill="#6c63ff"/>
  <path id="Path_341" data-name="Path 341" d="M695.231,411.2s-9.231-14.716-21.764-4.751c0,0,11.228,12.97,21.592,7.323Z" transform="translate(5.935 -62.644)" fill="#6c63ff"/>
  <path id="Path_342" data-name="Path 342" d="M692.814,396.44S681.656,382.446,670.778,387c0,0,11.611,14.847,22.308,12.981Z" transform="translate(5.81 -62.644)" fill="#6c63ff"/>
  <path id="Path_343" data-name="Path 343" d="M689.53,382.388s-12.832-17.072-21.262-12.235c0,0,9.4,13.2,22.059,15.342Z" transform="translate(5.67 -62.644)" fill="#6c63ff"/>
  <path id="Path_344" data-name="Path 344" d="M684.527,366.005S673.246,352,664.139,354.678c0,0,9.489,14.381,21.744,15.556Z" transform="translate(5.444 -62.644)" fill="#6c63ff"/>
  <path id="Path_345" data-name="Path 345" d="M680.03,350.694s-12.6-13.532-18.6-11.7c0,0,8.764,14.684,18.992,14.549Z" transform="translate(5.22 -62.644)" fill="#6c63ff"/>
  <path id="Path_346" data-name="Path 346" d="M675.577,336.534s-10.564-15.862-16.957-15.117c0,0,6.113,13.919,16.855,16.637Z" transform="translate(5.013 -62.644)" fill="#6c63ff"/>
  <path id="Path_347" data-name="Path 347" d="M670.989,317.541s-9.456-12.253-14.985-12.6c0,0,7.039,15.984,15.152,16.4Z" transform="translate(4.823 -62.644)" fill="#6c63ff"/>
  <path id="Path_348" data-name="Path 348" d="M668.361,304.921,660.1,280.168s-1.958,21.742,9.222,29.306Z" transform="translate(4.861 -62.644)" fill="#6c63ff"/>
  <path id="Path_349" data-name="Path 349" d="M666.134,278.086s-.286-20.223.876-21.79c0,0-8.19,16.248-1.405,30.682Z" transform="translate(4.862 -62.644)" fill="#6c63ff"/>
  <path id="Path_350" data-name="Path 350" d="M685.77,489.58s10.677-5.663,16.267,10.327c0,0-9.526,5.441-17.737-6.439Z" transform="translate(6.381 -62.644)" fill="#6c63ff"/>
  <path id="Path_351" data-name="Path 351" d="M691.44,472.55s12.956-4.89,17.965,11.744c0,0-10.159,6.012-19.384-7.721Z" transform="translate(6.731 -62.644)" fill="#6c63ff"/>
  <path id="Path_352" data-name="Path 352" d="M694.31,458.151s9.711-9.92,22.569,1.516c0,0-9.157,8.665-22.75,1.174Z" transform="translate(7.052 -62.644)" fill="#6c63ff"/>
  <path id="Path_353" data-name="Path 353" d="M696.552,441.592s9.859-10.38,22.141.9c0,0-10.942,9.015-22.313,1.673Z" transform="translate(7.156 -62.644)" fill="#6c63ff"/>
  <path id="Path_354" data-name="Path 354" d="M696.335,428s7.463-15.42,20.911-7.67c0,0-8.446,13.55-20.522,10.337Z" transform="translate(7.11 -62.644)" fill="#6c63ff"/>
  <path id="Path_355" data-name="Path 355" d="M694.431,411.064s7.44-15.7,21.057-7.272c0,0-9.628,14.2-20.583,9.807Z" transform="translate(7.015 -62.644)" fill="#6c63ff"/>
  <path id="Path_356" data-name="Path 356" d="M691.454,396.432s3.707-17.509,15.473-18.309c0,0-3.731,18.475-14.13,21.6Z" transform="translate(6.686 -62.644)" fill="#6c63ff"/>
  <path id="Path_357" data-name="Path 357" d="M689.23,382.4s2.408-21.221,12.127-21.324c0,0-1.412,16.143-11.239,24.407Z" transform="translate(6.467 -62.644)" fill="#6c63ff"/>
  <path id="Path_358" data-name="Path 358" d="M683.564,365.329s4.074-17.516,13.439-19.062c0,0-2.3,17.075-12.823,23.459Z" transform="translate(6.212 -62.644)" fill="#6c63ff"/>
  <path id="Path_359" data-name="Path 359" d="M678.927,350.748s1.337-18.442,7.155-20.774c0,0,2.375,16.935-5.681,23.24Z" transform="translate(5.792 -62.644)" fill="#6c63ff"/>
  <path id="Path_360" data-name="Path 360" d="M675.161,336.3s2.066-18.946,8.083-21.23c0,0,.988,15.17-7.292,22.532Z" transform="translate(5.615 -62.644)" fill="#6c63ff"/>
  <path id="Path_361" data-name="Path 361" d="M670.072,319s1.073-15.44,5.483-18.792c0,0,3.007,17.2-3.516,22.046Z" transform="translate(5.294 -62.644)" fill="#6c63ff"/>
  <path id="Path_362" data-name="Path 362" d="M668.9,304.194l5.78-25.448s4.095,21.443-6.284,30.073Z" transform="translate(5.233 -62.644)" fill="#6c63ff"/>
  <path id="Path_363" data-name="Path 363" d="M669.828,278.579s11.57-16.589,11.485-18.538c0,0-2.322,18.046-16.029,26.2Z" transform="translate(5.334 -62.644)" fill="#6c63ff"/>
  <path id="Path_364" data-name="Path 364" d="M668.951,273.392S680.423,249.494,685,247.8c0,0-14.511,6.191-16.82,24.83Z" transform="translate(5.509 -62.644)" fill="#6c63ff"/>
  <path id="Path_365" data-name="Path 365" d="M671.2,321.488l.685-.161c-6.474-27.588-7.384-44.982-2.561-48.977l-.449-.542C663.762,276.044,664.566,293.223,671.2,321.488Z" transform="translate(5.064 -62.644)" fill="#444053"/>
  <path id="Path_366" data-name="Path 366" d="M689.776,386.294l1.016-.285c-.712-2.536-1.492-5.113-2.32-7.658-7.2-22.145-13.223-42.7-16.912-58.42l-.835-.492c3.7,15.748,9.531,37.065,16.744,59.238C688.292,381.209,689.068,383.772,689.776,386.294Z" transform="translate(5.739 -62.644)" fill="#444053"/>
  <path id="Path_367" data-name="Path 367" d="M658.868,533.694c.145-.141,14.6-14.366,25.7-39.569a152.545,152.545,0,0,0,12.223-46.487c1.991-20.056-.719-42.783-6.575-63.653l-.847.866c13.146,46.843,4.07,85.618-6.062,108.649-10.986,24.972-25.272,39.046-25.415,39.185Z" transform="translate(5.649 -62.644)" fill="#444053"/>
  <path id="Path_368" data-name="Path 368" d="M1092.824,778.988l-27.672-40.118s-.517-9.933-2.328-12.255-.388-7.482-.388-7.482,1.94-2.838.259-3.1-.259-6.579-.259-6.579l-.129-10.062s1.552-9.675.259-12a3.8,3.8,0,0,1,.129-4.128s1.552-5.547,0-6.966-1.164-10.062-.776-16.9S1059.2,648.7,1059.2,647.67s-10.215-11.094-10.215-12-6.465-4.644-10.345-5.676-5.819-1.806-5.689-2.322-6.077-2.58-6.077-2.58-5.431-.387-7.5-3.1c-2.04-2.671-8.4-3.493-8.575-3.516-.039-.181-.084-.361-.12-.541s-.08-.389-.117-.583c.489-.819.942-1.661,1.351-2.528q.184-.39.356-.787a10.994,10.994,0,0,0,6.363-1.973,8.662,8.662,0,0,0,3.1-6.187,13.576,13.576,0,0,0-1.512-6.874c-1.135-2.323-2.8-4.729-2.223-7.249.249-1.089.9-2.043,1.234-3.109a8.187,8.187,0,0,0-.928-6.11c-.98-1.874-2.344-3.521-3.432-5.335a20.92,20.92,0,0,1-2.73-7.546,11.711,11.711,0,0,0-1.01-4.107,7.619,7.619,0,0,0-2.267-2.29,22.659,22.659,0,0,0-13.9-4.214c-3.52.122-7.028,1.07-10.524.64a38.528,38.528,0,0,1-6.144-1.608c-4.337-1.282-9.34-1.811-13.116.672-3.844,2.528-5.28,7.363-7.839,11.182-2.263,3.378-5.577,6.209-7.3,9.787.02-.069.037-.139.058-.208a11.753,11.753,0,0,0-.964,2.606c-.659,2.81-.111,5.751.573,8.555.352,1.446.834,3.016,2.089,3.82,1.282.822,3.031.622,4.521.887-.059.245-.121.49-.173.737a29.536,29.536,0,0,0,20.5,34.453c.006.263.011.526.008.783a20.26,20.26,0,0,1-.136,2.218h0v0s-13-2.672-16.491-.866-10.345,3.225-11.379,4.257-3.621.258-5.948,6.321-2.586,12.255-5.56,15.093-4.526,4.773-4.655,6.837.388,2.58-.776,3.225-2.845,3.354-2.328,4.386c0,0,.646,2.58-1.422,3.87a4.311,4.311,0,0,0-1.81,3.87s-.776,2.838-2.586,3.483-2.974,4.9-2.974,4.9l-5.865,6.741L903.1,682.837a4.9,4.9,0,0,0-6.916-.356l-5.7,5.133a11.262,11.262,0,0,0-5.711,3.4,14.85,14.85,0,0,0-2.959,4.4l-3.126,2.813a7.932,7.932,0,0,0-.8,8.766l7.445,8.235.046.069a13.117,13.117,0,0,0-7.2,2.933c-11.118,9.8-11.25,18.835-9.566,22.96s15.773,20,15.773,20,8.185,10.643,20.007,16.3l-.016.017c-.03.031-.06.059-.089.091-.234.248-.466.519-.693.809-.063.081-.127.16-.19.244s-.12.167-.18.252c-.071.1-.142.2-.212.309q-.083.125-.164.255c-.075.12-.149.243-.223.369-.048.082-.1.163-.143.247-.09.162-.177.33-.264.5-.028.056-.058.109-.085.165-.11.226-.217.462-.321.7-.036.085-.07.174-.106.261-.068.168-.135.338-.2.513-.04.109-.079.22-.117.332q-.086.248-.166.506c-.038.12-.075.24-.111.363-.054.184-.1.375-.154.566-.03.117-.062.23-.091.35q-.108.449-.2.925c-.023.119-.043.245-.065.367-.039.218-.078.438-.112.665-.023.152-.043.31-.064.466-.028.211-.055.426-.079.644-.018.162-.035.325-.05.491-.022.24-.04.485-.057.734-.01.151-.022.3-.03.453-.022.405-.038.819-.046,1.247-.26,15.093.625,17.287.625,17.287s1.827,4.806,6.862,5.151a8.957,8.957,0,0,0,2.211-.12c6.723-1.161,22.5-3.87,28.058-2.837,3.344.619,9.531-.3,13.938-1.13q.606-.114,1.162-.224l.8,2.565,2.559-.7c.827.48,1.562.9,2.17,1.254.582.337,1.048.6,1.369.788,2.554,8.653,12.91,5.7,12.91,5.7l2.459,1.42,24.955.642s5.357,3.228,8.833,4.241a7.878,7.878,0,0,0,1.253.275,57.326,57.326,0,0,0,6.955.132c1.912-.05,3.39-.132,3.39-.132s-.254-6.775-.616-14.361c9.536-.4,17.995-.994,23.115-1.893,13.324-2.34,18.885-14.461,20.934-20.935a60.978,60.978,0,0,1,1.307,8.036,58.064,58.064,0,0,0,2.069,6.966,23.572,23.572,0,0,0,2.845,5.16c9.827-3.354,3.879-8.385,1.81-10.578s1.422-4,1.422-4,2.715-1.806,2.457-3.483-.388-3.483,8.4-3.354S1092.824,778.988,1092.824,778.988ZM956.286,696.62c.112.738,1.338,8.684,2.448,10.775a14.219,14.219,0,0,1,.291,4.249c-5.209-.415-10.636-.637-10.636-.637a1.243,1.243,0,0,1,.278.663q-.4-.086-.818-.184c-.386-.09-.786-.188-1.191-.292l9.6-14.6ZM937.27,726.872l9.019,1.428.756.12a29.907,29.907,0,0,0-.467,4.259c.027.133.2.3.493.482a11.783,11.783,0,0,0-.175,2.134c.143.713,4.361,2.255,9.2,3.535-.066.261-.132.508-.2.74h0c-4.271-2.248-11-3.3-11.773-4.965s-23.663-9.667-23.663-9.667-.837-.443-2.28-1.139l6.031,1.14,1.656-.168a90.248,90.248,0,0,0,11.406,2.1Z" transform="translate(31 -62.644)" fill="url(#linear-gradient-2)"/>
  <path id="Path_369" data-name="Path 369" d="M1063.393,784.6s-3.588,21.658-21.786,24.862-78.943,2.563-78.943,2.563-34.73-5-47.289-34.345-20.633-41.009-9.868-41.522,68.818,19.607,72.15,19.864S1066.6,711.423,1063.393,784.6Z" transform="translate(31 -62.644)" fill="#65617d"/>
  <path id="Path_370" data-name="Path 370" d="M1063.393,784.6s-3.588,21.658-21.786,24.862-78.943,2.563-78.943,2.563-34.73-5-47.289-34.345-20.633-41.009-9.868-41.522,68.818,19.607,72.15,19.864S1066.6,711.423,1063.393,784.6Z" transform="translate(31 -62.644)" opacity="0.05"/>
  <path id="Path_371" data-name="Path 371" d="M900.488,808.691s1.811,4.775,6.8,5.117a8.854,8.854,0,0,0,2.191-.119c6.663-1.153,22.3-3.845,27.808-2.818,3.314.615,9.446-.3,13.814-1.123,2.9-.546,5.025-1.057,5.025-1.057S951,791.648,950.36,791.133s-23.068-13.967-23.068-13.967l-17.758-1.276-.054,0a9.354,9.354,0,0,0-6.021,3.537c-1.876,2.268-3.483,5.994-3.591,12.1C899.611,806.512,900.488,808.691,900.488,808.691Z" transform="translate(19.29 -62.644)" fill="#3f3d56"/>
  <path id="Path_372" data-name="Path 372" d="M900.488,808.691s1.811,4.775,6.8,5.117a73.249,73.249,0,0,1-4.825-7.039l.1-12.43a21.9,21.9,0,0,1,6.974-18.45l-.054,0s-9.354.638-9.612,15.632S900.488,808.691,900.488,808.691Z" transform="translate(17.348 -62.644)" opacity="0.05"/>
  <path id="Path_373" data-name="Path 373" d="M977.53,781.522l16.532-12.941,26.016-25.632s-2.81-.135-7.051-.319c-1.053.673-4.01,2.787-4.118,5.356-.127,3.133-7.032.219-10.619,2.011s-21.145,24.263-24.221,24.117-5.509-1.561-6.793.619c-.027.05-.062.1-.092.142Z" transform="translate(31 -62.644)" opacity="0.1"/>
  <path id="Path_374" data-name="Path 374" d="M903.46,779.422q.882.427,1.792.819c12.56,5.382,28.066,16.659,29.219,18.712.7,1.246,9.692,6.705,16.632,10.8,2.9-.546,5.025-1.057,5.025-1.057S951,791.648,950.36,791.133s-23.068-13.967-23.068-13.967l-17.758-1.276-.054,0A9.353,9.353,0,0,0,903.46,779.422Z" transform="translate(19.329 -62.644)" opacity="0.1"/>
  <path id="Path_375" data-name="Path 375" d="M868.6,742.691c1.665,4.1,15.632,19.865,15.632,19.865s8.843,11.534,21.4,16.916,28.066,16.659,29.219,18.712c.742,1.319,10.75,7.347,17.8,11.488.546.319,1.073.63,1.58.923,1.38.8,2.584,1.5,3.5,2.03,1.153.669,1.849,1.065,1.849,1.065s4.291-3.445,8.566-6.913c4.218-3.422,8.416-6.863,8.481-7.055.127-.384,1.792-4.744,1.407-5-.2-.135-1.08-1.907-2.7-3.964a18.137,18.137,0,0,0-6.528-5.394c-5.894-2.691-8.458-8.819-8.458-8.819s-.561-.408-1.411-.946a17.135,17.135,0,0,0-5.763-2.568c-2.822-.354-8.074-6.121-8.074-6.121s-3.591-2.307-5-5.252c-1.346-2.81-21.222-16.463-23.064-17.724l48.184,30.945,11.53,7.409,16.532-12.941,26.016-25.632s-3.5-.169-8.585-.388c-12.645-.546-35.1-1.4-37.935-.765a21.62,21.62,0,0,1-7.051.461s-6.4.288-10.63-1.945-10.9-3.276-11.668-4.933-23.452-9.6-23.452-9.6-30.884-16.4-41.906-6.663S866.932,738.593,868.6,742.691Z" transform="translate(31 -62.644)" fill="#65617d"/>
  <path id="Path_376" data-name="Path 376" d="M968.176,648.629l3.971,13.2,5.125,29.73,18.839,1.284,5.456-9.046,5.44-9.023s3.391-12.014,5.828-23.637c2.157-10.284,3.564-20.261,1.219-21.345-2.08-.961-3.449-4.425-4.337-8.147-.112-.461-.215-.93-.308-1.4a72.571,72.571,0,0,1-1.25-9.554s-39.472-2.049-33.963,14.225a25.9,25.9,0,0,1,1.488,8.654,20.177,20.177,0,0,1-.135,2.2A18.453,18.453,0,0,1,968.176,648.629Z" transform="translate(31 -62.644)" fill="#ee8e9e"/>
  <path id="Path_377" data-name="Path 377" d="M959.972,646.449l1.411,22.426,3.2,19.1,3.591,8.843,3.2,48.381s30.9,3.572,38.415-.065a3.286,3.286,0,0,0,1.361-1.061c9.077-13.706,6.1-53.406,6.1-53.406l3.46-25.632-2.307-13.3-5.575-.592-4.291-.458s-.969,1.192-2.368,3.041c-3.8,5.017-10.788,14.883-10.319,19,.638,5.64-.769,11.407-2.949,12.3s-3.971,2.438-4.356.9-.769-1.922-.384-4.1-1.669-8.843-1.669-8.843-3.46-7.816-3.2-11.149-.384-7.178-1.411-8.074-2.434-1.8-1.28-5.894-5.056-12.084-5.056-12.084Z" transform="translate(31 -62.644)" fill="#e3e8f4"/>
  <path id="Path_378" data-name="Path 378" d="M1000.789,702.459l1.284,38.319s2.91,1.611,7.4,4.1a3.286,3.286,0,0,0,1.361-1.061c9.077-13.706,6.1-53.405,6.1-53.405l3.46-25.632-2.307-13.3-5.575-.592c2.157-10.284,3.564-20.261,1.219-21.345-2.08-.961-3.449-4.425-4.337-8.147h0l-3.995,27.112s.334,2.441.454,4.963a14.2,14.2,0,0,1-.323,4.775c-.9,2.307-.258,6.409-.258,6.409-2.311,4.071-3.464,11.611-4.029,18.892C1000.5,693.232,1000.789,702.459,1000.789,702.459Z" transform="translate(31 -62.644)" opacity="0.1"/>
  <path id="Path_379" data-name="Path 379" d="M1009.519,620.784s6.457.8,8.507,3.494,7.433,3.076,7.433,3.076,6.151,2.05,6.023,2.563,1.794,1.282,5.639,2.307,10.252,4.742,10.252,5.639,10.124,10.893,10.124,11.918,3.076,4.87,2.691,11.662-.769,15.378.769,16.788,0,6.92,0,6.92a3.786,3.786,0,0,0-.128,4.1c1.281,2.307-.256,11.918-.256,11.918l.128,10s-1.41,6.28.256,6.536-.256,3.076-.256,3.076-1.41,5.126.384,7.433,2.307,12.175,2.307,12.175l27.425,39.856s.384,7.3-8.33,7.177-8.586,1.666-8.33,3.332-2.435,3.46-2.435,3.46-3.46,1.794-1.41,3.973,7.946,7.177-1.794,10.509a23.437,23.437,0,0,1-2.819-5.126,57.8,57.8,0,0,1-2.05-6.92s-.9-9.74-2.691-11.021-1.538-7.433-1.538-7.433,2.563-5-1.025-7.048-55.619-30.885-55.619-30.885l-1.282-38.318s-.9-28.322,4.485-37.805c0,0-.641-4.1.256-6.408s-.128-9.74-.128-9.74Z" transform="translate(31 -62.644)" fill="#3f3d56"/>
  <path id="Path_380" data-name="Path 380" d="M975.933,636.16s-12.884-2.654-16.344-.86-10.252,3.2-11.278,4.229-3.588.256-5.9,6.28-2.563,12.175-5.511,14.994-4.485,4.742-4.614,6.792.384,2.563-.769,3.2-2.819,3.332-2.307,4.357,26.656,23.58,26.656,23.58,1.282,8.586,2.435,10.765-1.282,32.167-3.845,34.217,17.3,1.861,17.3,1.861.9-19.675,1.666-20.7-.513-22.042-.513-22.042-.128-17.942,1.538-22.683,1.479-20.5,1.479-20.5,1.473-9.46,3.263-11.662S975.933,636.16,975.933,636.16Z" transform="translate(20.618 -62.644)" opacity="0.1"/>
  <path id="Path_381" data-name="Path 381" d="M975.548,635.775s-12.884-2.654-16.344-.86-10.252,3.2-11.278,4.229-3.588.256-5.9,6.28-2.563,12.175-5.511,14.994-4.485,4.742-4.614,6.792.384,2.563-.769,3.2-2.819,3.332-2.307,4.357,26.656,23.58,26.656,23.58,1.282,8.586,2.435,10.765-1.282,32.167-3.845,34.217,17.3,1.861,17.3,1.861.9-19.675,1.666-20.7-.513-22.042-.513-22.042-.128-17.942,1.538-22.683,1.479-20.5,1.479-20.5,1.473-9.46,3.263-11.662S975.548,635.775,975.548,635.775Z" transform="translate(20.598 -62.644)" fill="#3f3d56"/>
  <path id="Path_382" data-name="Path 382" d="M974.2,624.919a25.9,25.9,0,0,1,1.488,8.654,29.389,29.389,0,0,0,33.725-13.326,72.581,72.581,0,0,1-1.25-9.554S968.687,608.645,974.2,624.919Z" transform="translate(31 -62.644)" opacity="0.1"/>
  <path id="Path_383" data-name="Path 383" d="M954.72,604.67a29.33,29.33,0,1,0,.638-6.1,29.33,29.33,0,0,0-.638,6.1Z" transform="translate(31 -62.644)" fill="#ee8e9e"/>
  <path id="Path_384" data-name="Path 384" d="M935.88,672.592l-7.048,2.179s.641,2.563-1.41,3.845a4.287,4.287,0,0,0-1.794,3.845s-.769,2.819-2.563,3.46-2.948,4.87-2.948,4.87l-5.9,6.792s-2.179,1.794-1.794,2.691-2.307,1.153-2.307,1.153l1.41,22.811,12.174,2.307,7.561-.769,6.151-2.307,5.382-3.2,2.435-6.28L956,697.582Z" transform="translate(19.395 -62.644)" fill="#3f3d56"/>
  <path id="Path_385" data-name="Path 385" d="M911.915,703.221s-15.635-22.555-27.3-10.38,4.742,31.91,8.586,31.269,22.171-1.666,22.171-1.666Z" transform="translate(17.349 -62.644)" fill="#ee8e9e"/>
  <rect id="Rectangle_193" data-name="Rectangle 193" width="81.833" height="63.539" rx="1.544" transform="translate(896.285 594.594) rotate(27.036)" fill="#3f3d56"/>
  <rect id="Rectangle_194" data-name="Rectangle 194" width="68.783" height="51.831" transform="translate(899.281 602.693) rotate(27.036)" fill="#6c63ff"/>
  <circle id="Ellipse_387" data-name="Ellipse 387" cx="1.128" cy="1.128" r="1.128" transform="translate(881.072 623.428)" fill="#e6e8ec"/>
  <circle id="Ellipse_388" data-name="Ellipse 388" cx="1.86" cy="1.86" r="1.86" transform="translate(950.107 656.676)" fill="#e6e8ec"/>
  <path id="Path_386" data-name="Path 386" d="M901.791,707.963c-.127,16.916,34.859,20.5,34.859,20.5l8.939,1.419,4,.634,1.669-16.532s-1.834-.273-4.125-.807c-3.387-.788-7.774-2.153-8.693-4.064C936.9,705.914,901.918,691.046,901.791,707.963Z" transform="translate(19.101 -62.644)" fill="#ee8e9e"/>
  <path id="Path_387" data-name="Path 387" d="M955.358,598.568a3.477,3.477,0,0,1,2.145.961c.992,1.05,1.046,2.91,2.334,3.556a2.6,2.6,0,0,0,1.53.177c3.406-.481,5.379-4.329,8.65-5.386a8.7,8.7,0,0,1,5.732.492,4.271,4.271,0,0,1,1.9,1.219c1.1,1.419.327,3.5.834,5.217.7,2.38,3.545,3.326,6.005,3.637s5.232.484,6.874,2.341a6.23,6.23,0,0,1,1.222,4.959,3.9,3.9,0,0,0-.015,1.834c.677,1.922,4,1.638,4.871.119.634-1.1.442-2.018,1.938-2.326a6.368,6.368,0,0,1,3.137.542,23.031,23.031,0,0,0,8.116,1.246,29.351,29.351,0,1,0-55.274-18.589Z" transform="translate(31 -62.644)" opacity="0.1"/>
  <path id="Path_388" data-name="Path 388" d="M992.569,616.809a3.947,3.947,0,0,1,.015-1.836,6.232,6.232,0,0,0-1.22-4.958c-1.643-1.859-4.415-2.033-6.877-2.344s-5.3-1.254-6-3.633c-.508-1.715.26-3.8-.834-5.217a4.228,4.228,0,0,0-1.9-1.219,8.707,8.707,0,0,0-5.734-.5c-3.272,1.058-5.245,4.907-8.65,5.388a2.6,2.6,0,0,1-1.529-.177c-1.289-.646-1.344-2.506-2.334-3.554-1.556-1.648-4.508-.583-6.414-1.808-1.244-.8-1.721-2.358-2.07-3.795-.677-2.785-1.22-5.708-.567-8.5,1.115-4.767,5.373-8.035,8.094-12.106,2.536-3.793,3.959-8.6,7.769-11.109,3.743-2.467,8.7-1.942,13-.668a38.11,38.11,0,0,0,6.09,1.6c3.464.426,6.942-.515,10.43-.636a22.419,22.419,0,0,1,13.775,4.187,7.561,7.561,0,0,1,2.247,2.275,11.656,11.656,0,0,1,1,4.08,20.815,20.815,0,0,0,2.705,7.5c1.079,1.8,2.43,3.438,3.4,5.3a8.151,8.151,0,0,1,.92,6.07c-.33,1.059-.976,2.008-1.223,3.089-.57,2.5,1.078,4.894,2.2,7.2a13.515,13.515,0,0,1,1.5,6.829,8.613,8.613,0,0,1-3.071,6.146,11.035,11.035,0,0,1-6.5,1.969,23.045,23.045,0,0,1-8.277-1.243,6.408,6.408,0,0,0-3.137-.542c-1.5.307-1.3,1.223-1.938,2.327C996.571,618.445,993.248,618.729,992.569,616.809Z" transform="translate(31 -62.644)" fill="#3f3d56"/>
  <path id="Path_389" data-name="Path 389" d="M976.761,782.291l16.532-12.941,26.016-25.632s-3.5-.169-8.585-.388a5.618,5.618,0,0,0-1.815,3.5c-.127,3.133-7.032.219-10.619,2.011s-21.145,24.263-24.221,24.117-5.509-1.561-6.793.619c-.027.05-.062.1-.092.142a3.647,3.647,0,0,1-1.953,1.161Z" transform="translate(31 -62.644)" opacity="0.1"/>
  <path id="Path_390" data-name="Path 390" d="M943.44,781.395l8.308,26.516,1.3,4.164L957,810.991l8.723-2.4,38.842-10.669a33.7,33.7,0,0,0,13.979-3.73,42.35,42.35,0,0,1,24.137-5.263c5.135.481,10.844-1.735,15.582-10.489,0,0,10.765-31.78-16.4-40.88S1013.4,742.4,1013.4,742.4s-.138.077-.369.227c-1.053.673-4.01,2.787-4.118,5.356-.127,3.133-7.032.219-10.619,2.011s-21.145,24.263-24.221,24.117-5.509-1.561-6.793.619c-.027.05-.062.1-.092.142-.95,1.307-3.8,1.611-5.69,1.665-1.03.031-1.776-.015-1.776-.015l-.242.073-1.972.588Z" transform="translate(31 -62.644)" fill="#65617d"/>
  <path id="Path_391" data-name="Path 391" d="M945.589,729.885l4,.634,1.669-16.532s-1.834-.273-4.125-.807C947.742,715.487,946.365,724.4,945.589,729.885Z" transform="translate(31 -62.644)" opacity="0.1"/>
  <path id="Path_392" data-name="Path 392" d="M1050.38,652.637s11.918-3.46,8.971,30.372-24.99,55.234-24.99,55.234-25.374,11.149-36.78,9.355-19.736-2.179-19.736-2.179a28.97,28.97,0,0,0-11.534-3.076c-6.408-.256-19.864-4.229-20.12-5.511s3.332-20.12,1.794-21.53c0,0,17.942.735,19.736,2.034s4.357.367,6.28,0,7.817-5.494,19.479-1.008c0,0,3.973.384,5.511-.641s4.008-.256,4.008-.256a11.277,11.277,0,0,0,2.784-1.41c.384-.513,3.46,0,3.46,0a1.363,1.363,0,0,0,1.922-.9,8.384,8.384,0,0,1,1.794-2.819s3.46-19.479,10-26.784c0,0,1.922-1.666,1.41-3.716S1035,648.536,1050.38,652.637Z" transform="translate(31 -62.644)" opacity="0.1"/>
  <path id="Path_393" data-name="Path 393" d="M1050.065,650.037s11.918-3.46,8.971,30.372-24.99,55.234-24.99,55.234-25.374,11.149-36.78,9.355-19.736-2.179-19.736-2.179A28.972,28.972,0,0,0,966,739.745c-6.408-.256-19.864-4.229-20.12-5.511s3.332-20.12,1.794-21.53c0,0,17.942.735,19.736,2.034s4.357.367,6.28,0,7.817-5.494,19.479-1.008c0,0,3.973.384,5.511-.641s4.008-.256,4.008-.256a11.281,11.281,0,0,0,2.784-1.41c.384-.513,3.46,0,3.46,0a1.363,1.363,0,0,0,1.922-.9,8.383,8.383,0,0,1,1.794-2.819s3.46-19.479,10-26.784c0,0,1.922-1.666,1.41-3.716S1034.686,645.936,1050.065,650.037Z" transform="translate(31 -62.644)" fill="#3f3d56"/>
  <path id="Path_394" data-name="Path 394" d="M957.5,777.185l16.928,20.48a.516.516,0,0,0,.108-.119c.127-.384,1.792-4.744,1.407-5s-3.329-6.667-9.227-9.358a17.522,17.522,0,0,1-7.243-6.594Z" transform="translate(31 -62.644)" opacity="0.1"/>
  <path id="Path_395" data-name="Path 395" d="M957.738,812.624c1.153.669,1.849,1.065,1.849,1.065s4.291-3.445,8.566-6.913c4.218-3.422,8.416-6.863,8.481-7.055.127-.384,1.792-4.744,1.407-5-.2-.135-1.08-1.907-2.7-3.964-11.476-3.214-4.168,4.752-3.195,5.117,0,0-13.967-3.206-14.736,12.011a17.87,17.87,0,0,0,.327,4.737Z" transform="translate(31 -62.644)" opacity="0.1"/>
  <path id="Path_396" data-name="Path 396" d="M971.89,819.072l2.437,1.411,24.732.638a49.772,49.772,0,0,0,8.754,4.214,7.782,7.782,0,0,0,1.242.273,56.7,56.7,0,0,0,6.893.131c1.9-.05,3.36-.131,3.36-.131s-1.169-31.191-2.053-34.475c-.423-1.569-2.5-1.223-4.541-.438a30.039,30.039,0,0,0-4.429,2.241s-10.507,1.019-12.176,1.922-6.405-.519-9.354,0-8.2-3.468-8.2-3.468c-14.356-4.74-6.282,4.1-5.256,4.487,0,0-13.967-3.206-14.736,12.011S971.89,819.072,971.89,819.072Z" transform="translate(31 -62.644)" fill="#3f3d56"/>
  <path id="Path_397" data-name="Path 397" d="M1007.645,807.027c.269,6.455,5.3,14.471,8.3,18.712,1.9-.05,3.36-.131,3.36-.131s-1.169-31.191-2.053-34.475c-.423-1.569-2.5-1.223-4.541-.438C1010.232,795.347,1007.429,801.821,1007.645,807.027Z" transform="translate(31 -62.644)" fill="#565387"/>
  <path id="Path_398" data-name="Path 398" d="M1007.645,807.027c.269,6.455,5.3,14.471,8.3,18.712,1.9-.05,3.36-.131,3.36-.131s-1.169-31.191-2.053-34.475c-.423-1.569-2.5-1.223-4.541-.438C1010.232,795.347,1007.429,801.821,1007.645,807.027Z" transform="translate(31 -62.644)" opacity="0.1"/>
  <path id="Path_399" data-name="Path 399" d="M1003.416,807.884c1.7,6.232,1.684,13.222,4.4,17.451a7.8,7.8,0,0,0,1.242.273,56.711,56.711,0,0,0,6.893.131c1.9-.05,3.36-.131,3.36-.131s-1.169-31.191-2.053-34.475c-.423-1.569-2.5-1.223-4.541-.438a30.045,30.045,0,0,0-4.429,2.241S1001.24,799.9,1003.416,807.884Z" transform="translate(31 -62.644)" opacity="0.05"/>
  <path id="Path_400" data-name="Path 400" d="M918.089,744.653s12.285,3.993,22.7,18.156Z" transform="translate(18.834 -62.644)" opacity="0.1"/>
  <g id="Group_32" data-name="Group 32" transform="translate(979.118 519.427)" opacity="0.1">
    <path id="Path_401" data-name="Path 401" d="M1017.918,590.877c-.023.091-.046.182-.074.272a9.045,9.045,0,0,1-.427,1.069,7.818,7.818,0,0,1,.5-1.341Z" transform="translate(-948.118 -582.071)"/>
    <path id="Path_402" data-name="Path 402" d="M948.412,584.66a11.691,11.691,0,0,1,.955-2.589c-.067.22-.133.44-.186.667-.653,2.791-.11,5.714.567,8.5.349,1.437.826,3,2.07,3.795,1.907,1.225,4.859.16,6.414,1.808.99,1.049,1.045,2.908,2.334,3.554a2.6,2.6,0,0,0,1.529.177c3.4-.481,5.378-4.33,8.65-5.388a8.707,8.707,0,0,1,5.734.5,4.229,4.229,0,0,1,1.9,1.219c1.094,1.415.326,3.5.834,5.217.7,2.379,3.543,3.322,6,3.633s5.234.485,6.877,2.344a6.231,6.231,0,0,1,1.22,4.958,3.946,3.946,0,0,0-.015,1.836c.679,1.921,4,1.636,4.873.118.634-1.1.442-2.02,1.938-2.327a6.408,6.408,0,0,1,3.137.542,23.045,23.045,0,0,0,8.277,1.243,11.035,11.035,0,0,0,6.5-1.969,7.656,7.656,0,0,0,1.994-2.423,8.2,8.2,0,0,1-2.763,4.345,11.034,11.034,0,0,1-6.5,1.969,23.045,23.045,0,0,1-8.277-1.243,6.408,6.408,0,0,0-3.137-.542c-1.5.307-1.3,1.223-1.938,2.327-.871,1.518-4.193,1.8-4.873-.118a3.946,3.946,0,0,1,.015-1.836,6.232,6.232,0,0,0-1.22-4.958c-1.643-1.859-4.415-2.033-6.877-2.344s-5.3-1.254-6-3.633c-.508-1.715.26-3.8-.834-5.217a4.228,4.228,0,0,0-1.9-1.219,8.705,8.705,0,0,0-5.734-.5c-3.272,1.058-5.245,4.907-8.65,5.388a2.605,2.605,0,0,1-1.53-.177c-1.289-.646-1.344-2.506-2.334-3.554-1.556-1.648-4.508-.583-6.414-1.808-1.244-.8-1.721-2.358-2.07-3.795C948.3,590.374,947.759,587.452,948.412,584.66Z" transform="translate(-948.118 -582.071)"/>
  </g>
  <path id="Path_403" data-name="Path 403" d="M1019.9,687.232c-2.346,3.17-5.027,6.1-7.1,9.454s-3.545,7.267-3.114,11.188c2.149-2.205,3.134-5.253,4.49-8.018,2.3-4.684,5.728-8.655,8.621-12.961.554-.825,4.093-5.575,2.3-5.8C1023.617,680.9,1020.7,686.151,1019.9,687.232Z" transform="translate(31 -62.644)" opacity="0.1"/>
  <ellipse id="Ellipse_389" data-name="Ellipse 389" cx="121" cy="114" rx="121" ry="114" transform="translate(202.961 409.856)" fill="#f1f1f1"/>
  <path id="Path_404" data-name="Path 404" d="M523.121,726.219l-100.1-29.844A152.88,152.88,0,0,1,356.5,711.5c-78.3,0-142-58.318-142-130s63.7-130,142-130,142,58.318,142,130c0,36.187-16.613,70.913-45.625,95.475ZM422.843,694.236l.375.111,88.662,26.434-62.291-43.667,1.007-.837c29.173-24.226,45.9-58.771,45.9-94.776,0-70.58-62.8-128-140-128s-140,57.42-140,128,62.8,128,140,128a150.824,150.824,0,0,0,65.992-15.092Z" transform="translate(-14.828 -62.644)" fill="#2f2e41"/>
  <circle id="Ellipse_390" data-name="Ellipse 390" cx="11" cy="11" r="11" transform="translate(284.198 515.356)" fill="#6c63ff"/>
  <circle id="Ellipse_391" data-name="Ellipse 391" cx="11" cy="11" r="11" transform="translate(317.881 515.356)" fill="#6c63ff"/>
  <circle id="Ellipse_392" data-name="Ellipse 392" cx="11" cy="11" r="11" transform="translate(351.563 515.356)" fill="#6c63ff"/>
  <path id="Path_405" data-name="Path 405" d="M291.731,466.552c6.889,4.616,17.335,2.418,17.335,2.418s15.779-7.473,20.446-7.473,16-4.616,16-4.616l-.382-3.112-1.157-9.376c7.182,5.6,15.163,3.666,19.1,3.257,4.223-.44,26.775-13.847,28.945-14.726a5.738,5.738,0,0,0,1.978-2h0a50.806,50.806,0,0,0,3.818-6.976h0c1.414-1.243,2.445-2.242,2.372-2.458a15.537,15.537,0,0,1,1.381-3.691,18.083,18.083,0,0,0,6.842-2.464,6.214,6.214,0,0,0,.947-.958,6.083,6.083,0,0,0,1.276-3.877s22-22.2,19.113-31.431,7.112-9.451,7.112-9.451,15.335-6.594,17.468-10.55c1.316-2.435,12.814-7.776,21.473-11.53l1.064-.459c3.366,7.363,20.418,1.7,23.778-1.418,3.556-3.3,14-4.835,14-4.835s.445-43.08,3.778-48.575c1.582-2.607,1.965-11.113,1.925-19.329q0-.438-.005-.875c4.669-.91,15.773-3.021,20.932-3.534,3.27-.325,6.675-2.362,9.288-4.343.2.248.308.387.308.387a6.418,6.418,0,0,0,2.843.468,4.4,4.4,0,0,0,2.49-.468c2-1.1,9.334-3.3,12-4.4s-.445-9.012-2.445-10.55-3.334-3.517-2.222-4.4-2.667-3.077-4.889-3.517-8.89-3.517-8.89-3.517-2.445-5.055-6.445-5.055-9.334-3.956-9.334-3.956c-.222-1.758-4.445-1.978-4.445-1.978s-16-12.309-18.668-10.77-10-2.418-10-2.418-8.995,1.007-11.112-.649v-.01a2.528,2.528,0,0,0-.534-1.492c-.479-1.485-2.8-3.525-5.057-5.223a19.828,19.828,0,0,0,.257-3.175c0-.462-.018-.923-.049-1.376-.005-.076-.015-.151-.021-.227l.314-3.1a6.415,6.415,0,0,1,.777-2.912c.375-.578.927-1.035,1.345-1.587a4.412,4.412,0,0,0,.273-.411c.023-.038.043-.077.065-.116q.091-.163.167-.332c.017-.038.035-.075.051-.114a5.009,5.009,0,0,0,.287-.936c.005-.025.009-.051.014-.076q.042-.218.067-.44l.007-.061a9.463,9.463,0,0,0-.5-3.774c-.667-2.075-1.709-4.084-1.821-6.249a19.264,19.264,0,0,0-.113-3.221c-.535-2.4-3.008-3.933-5.384-4.928-3.285-1.377-4.942-2.882-7.582-4.929-2.243-1.74-5.943-.866-8.767-.685-6.447.414-12.814,2.354-18.877,4.363a18.766,18.766,0,0,0-6.595,3.274,7.267,7.267,0,0,0-2.414,4.072h0v0a5.106,5.106,0,0,0-.074,1.11c0,.033,0,.066.007.1q.014.213.048.425c.007.046.014.092.022.139a4.525,4.525,0,0,0,.123.5l0,.013c.255.81.731,1.545,1.006,2.349a5.11,5.11,0,0,1,.151.543c0,.02.008.039.012.059.037.176.068.353.089.53h0c.245,2-.492,4.086-.819,6.123-.046.288-.077.581-.1.877h0v.01a10.48,10.48,0,0,0,.307,3.51l.01.039c.039.141.084.279.129.417.02.06.037.12.058.179.041.118.088.232.134.348.031.077.061.154.095.23.045.1.094.2.143.3.042.085.084.169.129.251s.1.18.154.269.106.173.162.257.109.161.166.24.129.171.2.254.116.143.177.213c.075.085.153.166.233.246.061.062.121.125.185.184.089.083.183.16.277.237.062.051.123.1.187.153.11.083.228.159.345.235.056.036.109.075.167.11a5.8,5.8,0,0,0,.56.295c1.276.582,2.883.789,3.656,1.91a2.5,2.5,0,0,1,.374.875c0,.076-.006.151-.006.227v.193c.009.651.044,1.292.111,1.925a7.37,7.37,0,0,0,.058,1.042,3.009,3.009,0,0,0,.218.756,19.938,19.938,0,0,0,6.74,11.32c.064.338.141.736.228,1.182a22.205,22.205,0,0,1-6.466,3.389c-5.334,1.561-12.89,8.765-12.89,8.765s-3.756,27.035-4.654,30.332-1.569,16.045-1.569,16.045-.889,5.275-2.222,7.913c-.943,1.86-.774,9.846,1.861,14.7a12.416,12.416,0,0,1-1.639,2.664c-5.334,6.154-21.335,5.934-26.669,5.934-4.914,0-6.429,2.978-6.638,3.448-9.764,2.773-41.392,11.8-45.144,13.441-4.445,1.943-6.889,21.136-6.889,21.136s-9.334,31.87-8.89,36.064-3.111,15.808-3.111,15.808,0,13.148-1.511,14.041a.119.119,0,0,1-.044.026c-1.556.659-1.333,7.033-1.333,7.033s1.143.331,2.93.783c-.474,3.224-2.222,7.729-3.6,10.927-.692-.875-1.367-1.243-1.774-.22-1.111,2.8-17.779,22.577-22,22.577-2.014,0-5.338,1.648-7.525,3.873C289.144,461,288.126,464.139,291.731,466.552Zm76.451-114.513C387.072,353.8,407.3,350.7,407.3,350.7s-1.556,5.517-2.889,7.715-5.112,14.726-5.112,17.364-6,25.276-7.778,26.375a6.579,6.579,0,0,0-1.934,2.8,26.237,26.237,0,0,0-1.178,3.358c.026.574.079,1.114.153,1.628-1.328,1.218-2.732,2.492-3.984,3.622h0s-7.947,4.422-10.614,6.84-15.112,5.381-15.112,5.381a77.134,77.134,0,0,0-8.943,4.563c-3.856,2.327-7.716,5.278-8.722,8.2.435-4.912,1.146-10.829,1.621-14.593.242-.006.479-.015.71-.029,6.227-.387,5.3-6.33,4.969-7.8-.044-.211-.08-.33-.08-.33,4.445-4.836,14.446-40.882,13.112-44.838s1.111-7.473,1.64-7.473,1.249-4.4.138-6.814,4.889-4.616,4.889-4.616Zm152.761-96.966c-.393.095-.787.19-1.178.291-.01-.166-.015-.255-.015-.255s.443,0,1.193-.036Zm-64.574-33.166c-.178.22-.36.436-.549.641-.075.081-.152.158-.228.237-.006-.413-.005-.822,0-1.22q.384.179.777.342ZM434.105,264.55l.081,1.237s-.121.753-.345,2.047Zm102.132-12.284-3.876.668c.55-.208,1.091-.434,1.614-.683a3.7,3.7,0,0,1,1.236-.336,6.738,6.738,0,0,1,1.446.31,3.034,3.034,0,0,0-.42.041Z" transform="translate(-10.154 -62.644)" fill="url(#linear-gradient-3)"/>
  <path id="Path_406" data-name="Path 406" d="M405.085,410.955s-4.466,9.241-4.248,9.9-9.6,8.507-9.6,8.507l-10.688-7.634,1.091-5.235s12-10.81,12.869-12.058S405.085,410.955,405.085,410.955Z" transform="translate(-9.419 -62.644)" fill="#be6f72"/>
  <path id="Path_407" data-name="Path 407" d="M344.124,442.227c7.416,7.2,16.141,5.017,20.286,4.581s26.28-13.742,28.409-14.614a5.662,5.662,0,0,0,1.941-1.981h0a50.61,50.61,0,0,0,3.747-6.923c-.148.039-7.4,2.111-9.235,0,0,0-3.054-3.743-3.708-3.743s-.052-6.57-.052-6.57-7.8,4.389-10.418,6.788-14.833,5.34-14.833,5.34a75.365,75.365,0,0,0-8.777,4.528C345.7,433.158,339.906,438.135,344.124,442.227Z" transform="translate(-10.938 -62.644)" fill="#3f3d56"/>
  <path id="Path_408" data-name="Path 408" d="M344.124,442.227c7.416,7.2,16.141,5.017,20.286,4.581s26.28-13.742,28.409-14.614a5.662,5.662,0,0,0,1.941-1.981c-2.583-1.54-19.444,9.179-24.164,11.142s-16.656.872-23.418-1.963c-3.377-1.413.044-5.763,4.31-9.763C345.7,433.158,339.906,438.135,344.124,442.227Z" transform="translate(-10.997 -62.644)" opacity="0.1"/>
  <path id="Path_409" data-name="Path 409" d="M345,419.542s-3.107,23.339-2.317,26.393-19.5-10.47-19.5-10.47,7.1-14.625,5.017-17.986S345,419.542,345,419.542Z" transform="translate(-12.48 -62.644)" fill="#be6f72"/>
  <path id="Path_410" data-name="Path 410" d="M325.583,419.978s12.651,3.708,19.631,3.272c6.112-.384,5.2-6.282,4.877-7.743-.044-.209-.079-.327-.079-.327,4.363-4.8,14.178-40.571,12.869-44.5s1.091-7.416,1.61-7.416,1.226-4.363.135-6.762,4.8-4.581,4.8-4.581c18.541,1.745,38.39-1.331,38.39-1.331s-1.527,5.475-2.836,7.656-5.017,14.614-5.017,17.232-5.889,25.084-7.634,26.175a6.53,6.53,0,0,0-1.9,2.775,26.224,26.224,0,0,0-1.156,3.333c.654,14.614,17.232,8.943,19.631,6.98a5.946,5.946,0,0,0,2.181-4.8s21.594-22.031,18.759-31.192,6.98-9.379,6.98-9.379,15.051-6.544,17.145-10.47c1.291-2.417,12.577-7.717,21.075-11.443,5.322-2.334,9.55-4.044,9.55-4.044l-3.538-12.686-2.788-10-5.248-1.972-16.783-6.317L426.109,308.3l-2.761.358-29.272,3.787s-42.753,12.215-47.115,14.143-6.762,20.975-6.762,20.975-9.161,31.628-8.725,35.79-3.054,15.688-3.054,15.688,0,13.048-1.483,13.934a.116.116,0,0,1-.044.026C325.365,413.653,325.583,419.978,325.583,419.978Z" transform="translate(-10.175 -62.644)" fill="#3f3d56"/>
  <path id="Path_411" data-name="Path 411" d="M369.427,351.923c18.541,1.745,38.39-1.331,38.39-1.331,1.309-4.123,19.644-15.465,19.644-15.465C412.419,331.419,369.427,351.923,369.427,351.923Z" transform="translate(-9.45 -62.644)" opacity="0.1"/>
  <path id="Path_412" data-name="Path 412" d="M389.276,407.763c.654,14.614,17.232,8.943,19.631,6.98a6.135,6.135,0,0,0,.929-.951c-5.793,2.133-16.063,3.782-19.4-9.362A26.223,26.223,0,0,0,389.276,407.763Z" transform="translate(-9.027 -62.644)" fill="#444053"/>
  <path id="Path_413" data-name="Path 413" d="M325.583,419.978s12.651,3.708,19.631,3.272c6.112-.384,5.2-6.282,4.877-7.743-6.4-.2-17.433-.8-23.156-2.535a.117.117,0,0,1-.044.026C325.365,413.653,325.583,419.978,325.583,419.978Z" transform="translate(-12.314 -62.644)" fill="#444053"/>
  <path id="Path_414" data-name="Path 414" d="M389.276,407.763c.654,14.614,17.232,8.943,19.631,6.98a6.135,6.135,0,0,0,.929-.951c-5.793,2.133-16.063,3.782-19.4-9.362A26.223,26.223,0,0,0,389.276,407.763Z" transform="translate(-9.027 -62.644)" opacity="0.1"/>
  <path id="Path_415" data-name="Path 415" d="M325.583,419.978s12.651,3.708,19.631,3.272c6.112-.384,5.2-6.282,4.877-7.743-6.4-.2-17.433-.8-23.156-2.535a.117.117,0,0,1-.044.026C325.365,413.653,325.583,419.978,325.583,419.978Z" transform="translate(-12.314 -62.644)" opacity="0.1"/>
  <path id="Path_416" data-name="Path 416" d="M294.391,465.567c6.762,4.581,17.014,2.4,17.014,2.4s15.487-7.416,20.068-7.416,15.705-4.581,15.705-4.581l-.375-3.089L345,438.083s-16.988-.436-17.668-1.963c0,0-3.054-7.512-4.144-4.738s-17.45,22.406-21.594,22.406c-1.976,0-5.239,1.636-7.386,3.843C291.852,460.057,290.853,463.172,294.391,465.567Z" transform="translate(-13.691 -62.644)" fill="#3f3d56"/>
  <path id="Path_417" data-name="Path 417" d="M353.067,336.654s14.178,8.943,10.252,10.906S353.067,336.654,353.067,336.654Z" transform="translate(-11.073 -62.644)" opacity="0.1"/>
  <path id="Path_418" data-name="Path 418" d="M347.178,353.886s12.215,11.6,7.634,11.906S347.178,353.886,347.178,353.886Z" transform="translate(-11.413 -62.644)" opacity="0.1"/>
  <path id="Path_419" data-name="Path 419" d="M334.09,390.75s6.2,11.657,3.864,13.681S334.09,390.75,334.09,390.75Z" transform="translate(-12.153 -62.644)" opacity="0.1"/>
  <path id="Path_420" data-name="Path 420" d="M402.364,402.528c-2.181,2.181,20.722-7.2,15.487-7.634S402.364,402.528,402.364,402.528Z" transform="translate(-8.419 -62.644)" opacity="0.1"/>
  <path id="Path_421" data-name="Path 421" d="M448.17,238.934l.729-.109c2.714-.414,12.547-1.959,21.368-3.874,2.151-.467,4.236-.955,6.147-1.457,6.758-1.771,11.29-3.682,8.4-5.248-3.826-2.077-5.841-5.85-6.906-9.1-.1-.318-.2-.628-.284-.934a23.974,23.974,0,0,1-.881-5.021s-24.648-8.725-19.849,0c2.356,4.28.772,7.774-1.453,10.221a19.143,19.143,0,0,1-5.309,3.957Z" transform="translate(-5.595 -62.644)" fill="#be6f72"/>
  <path id="Path_422" data-name="Path 422" d="M474.563,232.172s-8.817,6.326-17.823,1.091-20.785,46.243-20.785,46.243l-12.215,30.1s-7.914,6.544,1.933,9.379,31.694-2.836,37.238,5.453,16.05,9.6,17.123,9.6,5.23-31.192,5.23-31.192l1.078-45.152Z" transform="translate(-6.513 -62.644)" opacity="0.1"/>
  <path id="Path_423" data-name="Path 423" d="M426.109,317.241c9.846,2.836,31.694-2.836,37.238,5.453a21.3,21.3,0,0,0,9.384,7.552,24.57,24.57,0,0,0,7.739,2.046c.144,0,.349-.572.589-1.562,1.536-6.313,4.642-29.63,4.642-29.63l1.078-45.152-10.365-22.454L475,230.427a18.785,18.785,0,0,1-4.493,2.186,15.815,15.815,0,0,1-13.332-1.095c-2.644-1.536-5.523,1.81-8.276,7.307-6.627,13.236-12.507,38.935-12.507,38.935l-12.215,30.1a10.594,10.594,0,0,0-.829.794C421.611,310.484,418.361,315.012,426.109,317.241Z" transform="translate(-6.489 -62.644)" fill="#f3f5f9"/>
  <path id="Path_424" data-name="Path 424" d="M473.023,318.759a56.788,56.788,0,0,0-.292,11.487,134.564,134.564,0,0,0,2.05,16.224,6.206,6.206,0,0,0,.266.99c5.322-2.334,9.55-4.044,9.55-4.044l-3.538-12.686c1.536-6.313,4.642-29.63,4.642-29.63l1.078-45.152-10.365-22.454c6.758-1.771,11.29-3.682,8.4-5.248-4.2-2.277-6.217-6.6-7.189-10.029a36.539,36.539,0,0,1-6.2,6.67l-.135.113-.785,7.613-.24,2.338-.5,4.855s2.4,57.367,4.144,60.639.872,9.6-.654,17.014C473.167,317.878,473.093,318.31,473.023,318.759Z" transform="translate(-4.873 -62.644)" opacity="0.1"/>
  <path id="Path_425" data-name="Path 425" d="M474.127,316.587c-1.527,7.416-.218,19.631,1.527,29.011s20.286,3.272,23.776,0,13.742-4.8,13.742-4.8.436-42.753,3.708-48.206c1.553-2.587,1.928-11.028,1.889-19.182-.031-7.325-.393-14.414-.528-16.818-.035-.558-.052-.864-.052-.864s14.178-23.994,13.96-25.739-4.363-1.963-4.363-1.963-15.705-12.215-18.323-10.688-9.816-2.4-9.816-2.4-9.122,1.034-11.007-.724a.958.958,0,0,1-.336-.8c.214-2.792-9.3-8.756-9.589-8.939,8.014,7.211-4.947,18.323-6.417,19.54l-.135.113-1.527,14.806s2.4,57.367,4.144,60.639S475.654,309.17,474.127,316.587Z" transform="translate(-3.874 -62.644)" fill="#67647e"/>
  <circle id="Ellipse_393" data-name="Ellipse 393" cx="1.091" cy="1.091" r="1.091" transform="translate(468.92 190.535)" fill="#444053"/>
  <path id="Path_426" data-name="Path 426" d="M472.736,224.887l6.627,6.413,9.715-16.211a.958.958,0,0,1-.336-.8c.214-2.792-9.3-8.756-9.589-8.939C487.167,212.558,474.206,223.669,472.736,224.887Z" transform="translate(-4.731 -62.644)" opacity="0.1"/>
  <circle id="Ellipse_394" data-name="Ellipse 394" cx="1.091" cy="1.091" r="1.091" transform="translate(471.214 225.435)" opacity="0.1"/>
  <circle id="Ellipse_395" data-name="Ellipse 395" cx="1.091" cy="1.091" r="1.091" transform="translate(471.214 224.998)" fill="#444053"/>
  <path id="Path_427" data-name="Path 427" d="M472.3,224.014l6.627,6.413,9.715-16.211a.958.958,0,0,1-.336-.8c.214-2.792-9.3-8.756-9.589-8.939C486.73,211.686,473.769,222.8,472.3,224.014Z" transform="translate(-4.754 -62.644)" fill="#67647e"/>
  <rect id="Rectangle_195" data-name="Rectangle 195" width="15.18" height="32.076" rx="1.699" transform="matrix(-1, -0.023, 0.023, -1, 475.468, 222.797)" fill="#3f3d56"/>
  <rect id="Rectangle_196" data-name="Rectangle 196" width="15.18" height="32.076" rx="1.699" transform="matrix(-1, -0.023, 0.023, -1, 475.468, 222.797)" opacity="0.1"/>
  <rect id="Rectangle_197" data-name="Rectangle 197" width="15.18" height="32.076" rx="1.699" transform="matrix(-1, -0.023, 0.023, -1, 475.554, 223.506)" fill="#3f3d56"/>
  <circle id="Ellipse_396" data-name="Ellipse 396" cx="2.385" cy="2.385" r="2.385" transform="translate(466.439 198.257)" fill="#67647e"/>
  <path id="Path_428" data-name="Path 428" d="M391.676,314.624c5.453,2.4,41.226-3.926,46.461-5.453s12.869-13.306,9.161-21.813,1.309-16.8,1.309-16.8,7.853-16.8,9.6-20.068,5.383-12.8,5.889-14.4a1.3,1.3,0,0,0-.31-1c-1.418-2.159-6.888-5.981-6.888-5.981-1.54.558-1.732-3.852-1.671-7.093.035-1.815.144-3.263.144-3.263s-.724.737-1.906,1.741c-.432.362-.925.763-1.47,1.178a22.587,22.587,0,0,1-6.875,3.756c-5.235,1.549-12.651,8.7-12.651,8.7l2.181,33.5s-5.017,31.5-10.252,37.609-20.94,5.889-26.175,5.889S391.676,314.624,391.676,314.624Z" transform="translate(-7.976 -62.644)" opacity="0.1"/>
  <path id="Path_429" data-name="Path 429" d="M391.239,313.315c5.453,2.4,41.226-3.926,46.461-5.453s12.869-13.306,9.161-21.813,1.309-16.8,1.309-16.8,7.853-16.8,9.6-20.068,5.383-12.8,5.889-14.4a1.3,1.3,0,0,0-.31-1c-1.418-2.159-6.888-5.981-6.888-5.981-1.54.558-1.732-3.852-1.671-7.093.035-1.815.144-3.263.144-3.263s-.724.737-1.906,1.741c-.432.362-.925.763-1.47,1.178a22.586,22.586,0,0,1-6.875,3.756c-5.235,1.549-12.651,8.7-12.651,8.7l2.181,33.5s-5.017,31.5-10.252,37.609-20.94,5.889-26.175,5.889S391.239,313.315,391.239,313.315Z" transform="translate(-8 -62.644)" fill="#67647e"/>
  <path id="Path_430" data-name="Path 430" d="M450.57,218.325s.2,1.152.55,2.919c1.174,5.99,3.974,19.069,5.994,18.563,1.448-.362,3.9-2.927,5.8-5.143-1.418-2.159-6.888-5.981-6.888-5.981-1.54.558-1.732-3.852-1.671-7.093l-1.762-1.523Z" transform="translate(-5.969 -62.644)" opacity="0.1"/>
  <path id="Path_431" data-name="Path 431" d="M451.006,217.453s.2,1.152.55,2.919c1.174,5.99,3.974,19.069,5.994,18.563,1.448-.362,3.9-2.927,5.8-5.143-1.418-2.159-6.888-5.981-6.888-5.981-1.54.558-1.732-3.852-1.671-7.093l-1.762-1.523Z" transform="translate(-5.946 -62.644)" fill="#67647e"/>
  <path id="Path_432" data-name="Path 432" d="M437.046,281.687s10.906-2.181,13.96-6.98,23.828-8.943,21.293-3.926-21.293,21.432-21.293,21.432l-8.127,11.64-10.85-2.753-4.569-8.887Z" transform="translate(-6.554 -62.644)" fill="#be6f72"/>
  <path id="Path_433" data-name="Path 433" d="M462.849,294.131s-10.562,3.926-12.152,9.161S462.849,294.131,462.849,294.131Z" transform="translate(-5.97 -62.644)" opacity="0.1"/>
  <path id="Path_434" data-name="Path 434" d="M469.328,300.227s.961,5.45-12.28,5.015Z" transform="translate(-5.632 -62.644)" opacity="0.1"/>
  <path id="Path_435" data-name="Path 435" d="M526.477,230.427l4.8-.436s5.235,3.926,9.161,3.926,6.326,5.017,6.326,5.017,6.544,3.054,8.725,3.49,5.889,2.618,4.8,3.49.218,2.836,2.181,4.363,5.017,9.379,2.4,10.47-9.816,3.272-11.779,4.363a5.409,5.409,0,0,1-4.363,0s-11.556-15.051-17.447-12.215-13.963,2.836-13.963,2.836l-6.326-13.306Z" transform="translate(-1.835 -62.644)" opacity="0.1"/>
  <path id="Path_436" data-name="Path 436" d="M426.109,302.2a5.831,5.831,0,0,0,4.066,2.827,30.823,30.823,0,0,0,12.7-1.174s-21.974-6.98-.816-23.955h-5.671l-1.889-.715.864-4.52,1.243-40.746-4.581-1.091s-3.686,26.829-4.568,30.1-1.54,15.923-1.54,15.923-.872,5.235-2.181,7.853C422.754,288.671,423.007,297.544,426.109,302.2Z" transform="translate(-7.261 -62.644)" fill="#67647e"/>
  <path id="Path_437" data-name="Path 437" d="M426.981,302.2a5.831,5.831,0,0,0,4.066,2.827,30.824,30.824,0,0,0,12.7-1.174s-21.974-6.98-.816-23.955h-5.671l-1.889-.715C432.269,284.684,427.378,294.473,426.981,302.2Z" transform="translate(-7.117 -62.644)" opacity="0.1"/>
  <path id="Path_438" data-name="Path 438" d="M426.109,302.2a5.831,5.831,0,0,0,4.066,2.827,30.823,30.823,0,0,0,12.7-1.174s-21.974-6.98-.816-23.955h-5.671l-1.889-.715C431.4,284.684,426.506,294.473,426.109,302.2Z" transform="translate(-7.163 -62.644)" fill="none"/>
  <path id="Path_439" data-name="Path 439" d="M426.109,302.2a5.831,5.831,0,0,0,4.066,2.827,30.823,30.823,0,0,0,12.7-1.174s-21.974-6.98-.816-23.955h-5.671l-1.889-.715C431.4,284.684,426.506,294.473,426.109,302.2Z" transform="translate(-7.163 -62.644)" fill="#67647e"/>
  <path id="Path_440" data-name="Path 440" d="M455.442,223.416a19.851,19.851,0,0,0,22.467-4.267c-.1-.318-.2-.628-.284-.934a23.974,23.974,0,0,1-.881-5.021s-24.648-8.725-19.849,0C459.251,217.475,457.667,220.969,455.442,223.416Z" transform="translate(-5.514 -62.644)" opacity="0.1"/>
  <path id="Path_441" data-name="Path 441" d="M443.808,204.47v.192c.009.646.044,1.283.109,1.911.065.6.157,1.2.27,1.784a19.856,19.856,0,0,0,38.246,2.565c.131-.384.253-.772.358-1.165a19.756,19.756,0,0,0,.715-5.287c0-.458-.017-.916-.048-1.365a19.849,19.849,0,0,0-39.651,1.365Z" transform="translate(-5.784 -62.644)" fill="#be6f72"/>
  <path id="Path_442" data-name="Path 442" d="M443.808,204.662a8.6,8.6,0,0,1,.109,1.911,7.391,7.391,0,0,0,.057,1.034,3.009,3.009,0,0,0,.214.75c.8,1.885,3.42,3.1,5.148,1.889a5.589,5.589,0,0,0,1.549-2.029c1.832-3.407,4.384-7.329,8.4-7.394,1.71-.031,3.32.689,4.973,1.112s3.617.471,4.851-.654c.947-.864,1.4-2.343,2.67-2.648,1.291-.31,2.443.864,3.028,2.007s1.047,2.487,2.229,3.076c.523.262,1.139.336,1.653.615,2.373,1.3,1.283,5.854,3.747,6.592a1.859,1.859,0,0,0,.236.057c.039-.406.083-.816.122-1.221q.334-3.324.667-6.653a19.849,19.849,0,0,0-39.651,1.365Z" transform="translate(-5.785 -62.644)" opacity="0.1"/>
  <path id="Path_443" data-name="Path 443" d="M479.069,174.84c2.332.988,4.76,2.509,5.285,4.891a19.333,19.333,0,0,1,.111,3.2c.109,2.149,1.133,4.143,1.787,6.2s.888,4.462-.423,6.213c-.41.548-.952,1-1.32,1.575a6.421,6.421,0,0,0-.762,2.89l-1.078,10.737c-2.769-.516-1.536-5.313-3.984-6.649-.514-.281-1.127-.356-1.652-.618-1.181-.589-1.643-1.934-2.229-3.076s-1.737-2.313-3.029-2c-1.27.3-1.72,1.786-2.666,2.649-1.236,1.126-3.2,1.074-4.854.652s-3.262-1.142-4.971-1.113c-4.015.068-6.567,3.988-8.4,7.395a5.548,5.548,0,0,1-1.548,2.032c-1.949,1.371-5.027-.355-5.361-2.642-.187-1.28.212-2.71-.527-3.793-.758-1.112-2.336-1.318-3.588-1.9-3.187-1.469-4.176-5.449-3.646-8.787.382-2.406,1.339-4.882.556-7.2-.27-.8-.737-1.527-.988-2.331-.7-2.245.442-4.723,2.242-6.317A18.339,18.339,0,0,1,444.5,173.6c5.951-1.994,12.2-3.919,18.528-4.33,2.772-.18,6.4-1.047,8.6.68C474.218,171.98,475.844,173.474,479.069,174.84Z" transform="translate(-5.995 -62.644)" fill="#3f3d56"/>
  <circle id="Ellipse_397" data-name="Ellipse 397" cx="1.091" cy="1.091" r="1.091" transform="translate(467.773 173.303)" opacity="0.1"/>
  <circle id="Ellipse_398" data-name="Ellipse 398" cx="1.091" cy="1.091" r="1.091" transform="translate(467.773 172.866)" fill="#444053"/>
  <circle id="Ellipse_399" data-name="Ellipse 399" cx="1.091" cy="1.091" r="1.091" transform="translate(475.114 241.794)" opacity="0.1"/>
  <circle id="Ellipse_400" data-name="Ellipse 400" cx="1.091" cy="1.091" r="1.091" transform="translate(475.114 241.358)" fill="#444053"/>
  <circle id="Ellipse_401" data-name="Ellipse 401" cx="1.091" cy="1.091" r="1.091" transform="translate(471.214 259.899)" opacity="0.1"/>
  <circle id="Ellipse_402" data-name="Ellipse 402" cx="1.091" cy="1.091" r="1.091" transform="translate(471.214 259.462)" fill="#444053"/>
  <path id="Path_444" data-name="Path 444" d="M439.663,254.27s-2.4,16.293,0,19.128S439.663,254.27,439.663,254.27Z" transform="translate(-6.785 -62.644)" opacity="0.1"/>
  <path id="Path_445" data-name="Path 445" d="M510.99,284.522s4.581,9.868,0,19.33-7.416,13.3-5.889,19.345S510.99,284.522,510.99,284.522Z" transform="translate(-3.235 -62.644)" opacity="0.1"/>
  <path id="Path_446" data-name="Path 446" d="M294.391,465.567c6.762,4.581,17.014,2.4,17.014,2.4s15.487-7.416,20.068-7.416,15.705-4.581,15.705-4.581l-.375-3.089c-4.52.872-14.8,2.945-15.984,3.961-1.527,1.309-20.286,7.634-20.286,7.634s-12.773-1.6-16.329-6.845C291.852,460.057,290.853,463.172,294.391,465.567Z" transform="translate(-13.691 -62.644)" opacity="0.1"/>
  <g id="Group_33" data-name="Group 33" transform="translate(429.578 117.828)" opacity="0.1">
    <path id="Path_447" data-name="Path 447" d="M484.464,181.183c-.012-.236-.012-.474-.009-.711.019.271.023.544.019.817C484.472,181.253,484.466,181.219,484.464,181.183Z" transform="translate(-435.573 -180.472)"/>
    <path id="Path_448" data-name="Path 448" d="M439.858,199.736c1.252.577,2.83.783,3.588,1.9.739,1.083.339,2.514.527,3.793.334,2.287,3.413,4.012,5.361,2.642a5.548,5.548,0,0,0,1.548-2.032c1.832-3.407,4.385-7.327,8.4-7.395,1.709-.029,3.319.692,4.971,1.113s3.618.474,4.854-.652c.947-.863,1.4-2.345,2.666-2.648,1.293-.309,2.443.863,3.029,2s1.048,2.487,2.229,3.076c.525.262,1.138.337,1.652.618,2.448,1.337,1.216,6.134,3.984,6.649l1.078-10.737a6.421,6.421,0,0,1,.762-2.89c.368-.574.91-1.027,1.32-1.575a4.8,4.8,0,0,0,.9-2.309,5.58,5.58,0,0,1-.9,4.054c-.41.548-.952,1-1.32,1.575a6.421,6.421,0,0,0-.762,2.89l-1.078,10.737c-2.769-.516-1.536-5.313-3.984-6.649-.514-.281-1.127-.356-1.652-.618-1.181-.589-1.643-1.934-2.229-3.076s-1.737-2.313-3.029-2c-1.27.3-1.72,1.786-2.666,2.648-1.236,1.126-3.2,1.074-4.854.652s-3.262-1.142-4.971-1.113c-4.015.068-6.567,3.988-8.4,7.395a5.549,5.549,0,0,1-1.548,2.032c-1.949,1.371-5.027-.355-5.361-2.642-.187-1.28.212-2.71-.527-3.793-.758-1.112-2.336-1.318-3.588-1.9-2.915-1.344-3.987-4.786-3.744-7.918C436.327,196.145,437.48,198.64,439.858,199.736Z" transform="translate(-435.573 -180.472)"/>
    <path id="Path_449" data-name="Path 449" d="M435.78,181.42c.251.8.718,1.533.988,2.331a6.707,6.707,0,0,1,.248,2.868,5.572,5.572,0,0,0-.248-1.123c-.27-.8-.737-1.527-.988-2.331a4.827,4.827,0,0,1-.127-2.276,4.546,4.546,0,0,0,.127.531Z" transform="translate(-435.573 -180.472)"/>
  </g>
  <path id="Path_450" data-name="Path 450" d="M499.866,278.406c5.017-1.1,16.8-4.572,16.8-4.572s.8-.161,2.107-.423c-.031-7.325-.393-14.414-.528-16.818l-.052.009s-10.034,3.272-12.433,5.017-9.816,1.309-9.816,1.309-11.561.654-21.158,11.343S494.849,279.505,499.866,278.406Z" transform="translate(-4.097 -62.644)" opacity="0.1"/>
  <path id="Path_451" data-name="Path 451" d="M548.893,258.94a2.91,2.91,0,0,1,.655,4.89c-2.657,2.2-6.538,4.833-10.24,5.205-6.179.622-21.05,3.6-22.528,3.9-.08.016-.155.035-.234.058-1.226.36-11.954,3.5-16.681,4.538-5.017,1.1-34.682,6.553-25.084-4.136a33.927,33.927,0,0,1,20.945-11.325,2.723,2.723,0,0,1,.384-.009c1.122.052,7.461.271,9.645-1.317a20.579,20.579,0,0,1,3.609-1.8,69.31,69.31,0,0,1,14.746-4.252l10.261-1.789a2.952,2.952,0,0,1,1.728.22Z" transform="translate(-3.384 -62.644)" fill="#be6f72"/>
  <path id="Path_452" data-name="Path 452" d="M527.35,230.427l4.8-.436s5.235,3.926,9.161,3.926,6.326,5.017,6.326,5.017,6.544,3.054,8.725,3.49,5.889,2.618,4.8,3.49.218,2.836,2.181,4.363,5.017,9.379,2.4,10.47-9.816,3.272-11.779,4.363a5.409,5.409,0,0,1-4.363,0s-11.555-15.051-17.447-12.215-13.963,2.836-13.963,2.836l-6.326-13.306Z" transform="translate(-1.788 -62.644)" fill="#67647e"/>
</svg>
