<svg xmlns="http://www.w3.org/2000/svg" width="48" height="48" viewBox="0 0 48 48" fill="#black">
  <path id="github-icon" d="M24,0C10.748,0,0,11.018,0,24.607a24.565,24.565,0,0,0,16.414,23.35c1.2.228,1.586-.535,1.586-1.183V42.192c-6.676,1.489-8.066-2.9-8.066-2.9-1.092-2.844-2.666-3.6-2.666-3.6-2.178-1.528.166-1.495.166-1.495a5.053,5.053,0,0,1,3.678,2.537c2.14,3.761,5.614,2.674,6.984,2.044a5.271,5.271,0,0,1,1.524-3.289C14.29,34.86,8.686,32.75,8.686,23.323a9.658,9.658,0,0,1,2.472-6.6,9.059,9.059,0,0,1,.234-6.513s2.016-.66,6.6,2.522a22.207,22.207,0,0,1,12.018,0c4.582-3.182,6.594-2.522,6.594-2.522a9.05,9.05,0,0,1,.236,6.513,9.633,9.633,0,0,1,2.47,6.6c0,9.451-5.614,11.532-10.958,12.141A5.961,5.961,0,0,1,30,40.021v6.752c0,.654.384,1.423,1.6,1.181A24.567,24.567,0,0,0,48,24.607C48,11.018,37.254,0,24,0Z"/>
</svg>