<svg xmlns="http://www.w3.org/2000/svg" width="48" height="39" viewBox="0 0 48 39" fill="#55acee">
  <path id="twitter-icon" d="M48,6.865a19.664,19.664,0,0,1-5.656,1.55,9.862,9.862,0,0,0,4.33-5.447,19.73,19.73,0,0,1-6.254,2.39,9.854,9.854,0,0,0-16.782,8.978A27.958,27.958,0,0,1,3.342,4.05,9.858,9.858,0,0,0,6.388,17.195,9.807,9.807,0,0,1,1.93,15.963a9.853,9.853,0,0,0,7.9,9.778,9.873,9.873,0,0,1-4.448.168,9.855,9.855,0,0,0,9.2,6.837A19.8,19.8,0,0,1,0,36.825a27.882,27.882,0,0,0,15.1,4.423c18.284,0,28.614-15.439,27.99-29.286A20.047,20.047,0,0,0,48,6.865Z" transform="translate(0 -2.248)"/>
</svg>
